<svg width="448" height="328" viewBox="0 0 448 328" fill="none" xmlns="http://www.w3.org/2000/svg">
<path d="M329.632 243.902C289.943 243.902 254.859 246.841 233.409 251.36C213.676 244.263 187.457 239.943 158.673 239.943C97.3206 239.943 47.584 259.589 47.584 283.829C47.584 308.068 97.3206 327.714 158.673 327.714C220.025 327.714 269.762 308.068 269.762 283.829C269.762 281.476 269.276 279.172 268.38 276.919C286.245 278.55 307.21 279.496 329.632 279.496C394.956 279.496 447.892 271.528 447.892 261.705C447.905 251.858 394.956 243.902 329.632 243.902Z" fill="#EDEEF2"/>
<path d="M254.285 259.739C250.65 259.739 247.276 256.178 246.766 251.809L232.399 130.175C231.876 125.805 235.001 122.257 239.358 122.257H419.929C424.274 122.257 427.399 125.805 426.888 130.175L412.521 251.809C411.998 256.178 408.625 259.739 405.002 259.739H254.285Z" fill="#F6F6F6"/>
<path d="M419.63 124.996C422.469 124.996 424.511 127.324 424.187 130.187L410.218 251.821C409.895 254.684 407.679 257.013 405.288 257.013H253.987C251.596 257.013 249.393 254.684 249.057 251.821L235.088 130.187C234.764 127.324 236.806 124.996 239.645 124.996H419.63ZM420.215 119.53H239.06C233.183 119.53 228.988 124.311 229.697 130.187L244.463 251.821C245.172 257.697 249.717 262.478 254.584 262.478H404.691C409.558 262.478 414.09 257.697 414.812 251.821L429.578 130.187C430.287 124.311 426.092 119.53 420.215 119.53Z" fill="#3C4242"/>
<path d="M419.63 124.996H393.485L386.09 220.871C385.866 223.735 383.662 226.063 381.172 226.063H246.105L249.069 251.809C249.405 254.672 251.608 257 253.999 257H405.288C407.678 257 409.882 254.672 410.218 251.809L424.186 130.175C424.51 127.312 422.468 124.996 419.63 124.996Z" fill="#EDEEF2"/>
<path d="M419.63 124.996H409.857L399.175 235.338C398.901 238.201 396.685 240.53 394.233 240.53H247.762L249.057 251.821C249.393 254.685 251.596 257.013 253.987 257.013H405.276C407.666 257.013 409.87 254.685 410.206 251.821L424.174 130.188C424.51 127.312 422.469 124.996 419.63 124.996Z" fill="#1577EB"/>
<path d="M245.994 155.473L252.207 214.733" stroke="white" stroke-width="5.46568" stroke-miterlimit="10" stroke-linecap="round" stroke-linejoin="round"/>
<path d="M278.96 241.077C279.072 242.633 278.089 243.903 276.757 243.903H270.358C269.038 243.903 267.843 242.633 267.706 241.077L261.406 168.582C261.269 167.013 262.352 165.756 263.834 165.756H270.93C272.412 165.756 273.682 167.013 273.794 168.582L278.96 241.077Z" fill="#BEBCBD" stroke="#3C4242" stroke-width="5.46568" stroke-miterlimit="10" stroke-linecap="round" stroke-linejoin="round"/>
<path d="M307.108 241.077C307.158 242.633 306.125 243.903 304.793 243.903H298.393C297.061 243.903 295.928 242.633 295.854 241.077L292.418 168.582C292.343 167.013 293.476 165.756 294.945 165.756H302.041C303.51 165.756 304.755 167.013 304.805 168.582L307.108 241.077Z" fill="#BEBCBD" stroke="#3C4242" stroke-width="5.46568" stroke-miterlimit="10" stroke-linecap="round" stroke-linejoin="round"/>
<path d="M335.258 241.077C335.246 242.633 334.163 243.903 332.831 243.903H326.444C325.112 243.903 324.029 242.633 324.016 241.077L323.443 168.582C323.431 167.013 324.614 165.756 326.083 165.756H333.179C334.661 165.756 335.843 167.013 335.831 168.582L335.258 241.077Z" fill="#BEBCBD" stroke="#3C4242" stroke-width="5.46568" stroke-miterlimit="10" stroke-linecap="round" stroke-linejoin="round"/>
<path d="M363.407 241.077C363.332 242.633 362.199 243.903 360.867 243.903H354.468C353.136 243.903 352.102 242.633 352.152 241.077L354.443 168.582C354.493 167.013 355.725 165.756 357.207 165.756H364.303C365.772 165.756 366.917 167.013 366.843 168.582L363.407 241.077Z" fill="#BEBCBD" stroke="#3C4242" stroke-width="5.46568" stroke-miterlimit="10" stroke-linecap="round" stroke-linejoin="round"/>
<path d="M391.556 241.077C391.419 242.633 390.237 243.903 388.904 243.903H382.505C381.173 243.903 380.19 242.633 380.302 241.077L385.456 168.582C385.568 167.013 386.85 165.756 388.319 165.756H395.416C396.885 165.756 397.98 167.013 397.843 168.582L391.556 241.077Z" fill="#BEBCBD" stroke="#3C4242" stroke-width="5.46568" stroke-miterlimit="10" stroke-linecap="round" stroke-linejoin="round"/>
<path d="M265.927 128.93C265.13 130.162 263.487 130.523 262.266 129.726L256.328 125.904C255.095 125.108 254.734 123.464 255.531 122.244L292.357 64.963C293.154 63.7305 294.798 63.3819 296.03 64.1663L301.969 67.9759C303.201 68.7727 303.562 70.416 302.765 71.6485L265.927 128.93Z" fill="#BEBCBD" stroke="#3C4242" stroke-width="5.46568" stroke-miterlimit="10" stroke-linecap="round" stroke-linejoin="round"/>
<path d="M393.337 128.93C394.134 130.162 395.777 130.523 397.01 129.726L402.948 125.904C404.181 125.108 404.529 123.464 403.745 122.244L366.919 64.963C366.122 63.7305 364.479 63.3819 363.258 64.1663L357.32 67.9759C356.087 68.7727 355.726 70.416 356.523 71.6485L393.337 128.93Z" fill="#BEBCBD" stroke="#3C4242" stroke-width="5.46568" stroke-miterlimit="10" stroke-linecap="round" stroke-linejoin="round"/>
<path d="M227.16 148.526C222.964 148.526 219.553 145.115 219.553 140.919V126.079C219.553 121.884 222.964 118.473 227.16 118.473H432.107C436.302 118.473 439.714 121.884 439.714 126.079V140.919C439.714 145.115 436.302 148.526 432.107 148.526H227.16Z" fill="#F6F6F6"/>
<path d="M432.118 121.199C434.82 121.199 436.998 123.378 436.998 126.079V140.919C436.998 143.608 434.82 145.799 432.118 145.799H227.158C224.469 145.799 222.278 143.621 222.278 140.919V126.079C222.278 123.39 224.469 121.199 227.158 121.199H432.118ZM432.118 115.733H227.158C221.456 115.733 216.812 120.377 216.812 126.079V140.919C216.812 146.621 221.456 151.265 227.158 151.265H432.106C437.807 151.265 442.451 146.621 442.451 140.919V126.079C442.464 120.377 437.82 115.733 432.118 115.733Z" fill="#3C4242"/>
<path d="M432.117 121.198H422.357V128.618C422.357 131.32 420.178 133.499 417.477 133.499H222.277V140.919C222.277 143.608 224.468 145.799 227.158 145.799H432.105C434.807 145.799 436.985 143.62 436.985 140.919V126.079C436.998 123.389 434.807 121.198 432.117 121.198Z" fill="#1577EB"/>
<path d="M69.7067 186.858C69.2834 186.858 68.8477 186.759 68.4618 186.56L42.3796 173.251C41.421 172.765 40.8358 171.744 40.8856 170.674C40.9479 169.591 41.6326 168.657 42.6286 168.271L131.594 134.072C131.906 133.947 132.242 133.885 132.578 133.885C132.877 133.885 133.188 133.935 133.474 134.034L155.747 141.765C156.842 142.151 157.589 143.185 157.589 144.343V151.389C157.589 152.522 156.892 153.53 155.834 153.941L70.6778 186.684C70.3666 186.796 70.0429 186.858 69.7067 186.858Z" fill="#EDEEF2"/>
<path d="M132.59 136.624L154.863 144.355V151.401L69.7067 184.144L43.6245 170.823L132.59 136.624ZM132.59 131.158C131.918 131.158 131.258 131.283 130.623 131.519L41.6699 165.719C39.653 166.491 38.2836 168.383 38.1715 170.537C38.0595 172.69 39.2173 174.707 41.147 175.691L67.2292 189C68.001 189.398 68.8601 189.597 69.7191 189.597C70.3789 189.597 71.0512 189.473 71.6862 189.236L156.842 156.493C158.959 155.684 160.341 153.655 160.341 151.389V144.342C160.341 142.014 158.872 139.935 156.668 139.176L134.395 131.445C133.81 131.258 133.2 131.158 132.59 131.158Z" fill="#3C4242"/>
<path d="M85.095 178.206L68.0016 170.027L145.987 141.255L132.591 136.624L43.625 170.823L69.7072 184.132L85.095 178.206Z" fill="#BEBCBD"/>
<path d="M247.639 186.858C247.303 186.858 246.979 186.796 246.656 186.671L161.5 153.929C160.441 153.518 159.744 152.509 159.744 151.376V144.33C159.744 143.16 160.479 142.126 161.587 141.753L183.859 134.021C184.146 133.922 184.457 133.872 184.756 133.872C185.092 133.872 185.415 133.934 185.739 134.059L274.705 168.258C275.713 168.644 276.398 169.59 276.448 170.661C276.51 171.744 275.925 172.753 274.966 173.238L248.884 186.547C248.498 186.758 248.075 186.858 247.639 186.858Z" fill="#EDEEF2"/>
<path d="M184.756 136.624L273.721 170.823L247.639 184.132L162.483 151.389V144.342L184.756 136.624ZM184.756 131.158C184.146 131.158 183.548 131.258 182.963 131.457L160.69 139.188C158.487 139.948 157.018 142.027 157.018 144.355V151.401C157.018 153.667 158.412 155.697 160.528 156.506L245.684 189.249C246.319 189.498 246.979 189.61 247.652 189.61C248.511 189.61 249.357 189.41 250.141 189.012L276.224 175.703C278.141 174.72 279.311 172.703 279.199 170.549C279.087 168.395 277.718 166.503 275.701 165.731L186.735 131.532C186.088 131.27 185.415 131.158 184.756 131.158Z" fill="#3C4242"/>
<path d="M232.251 178.206L249.357 170.027L171.359 141.255L184.755 136.624L273.721 170.823L247.639 184.132L232.251 178.206Z" fill="#BEBCBD"/>
<path d="M247.638 276.87C247.302 276.87 246.978 276.807 246.655 276.683L157.689 242.483C156.631 242.073 155.933 241.064 155.933 239.931V150.965C155.933 150.069 156.382 149.223 157.116 148.712C157.577 148.401 158.112 148.227 158.66 148.227C158.996 148.227 159.32 148.289 159.643 148.413L248.609 182.613C249.667 183.024 250.365 184.032 250.365 185.165V274.131C250.365 275.027 249.916 275.874 249.182 276.384C248.721 276.708 248.186 276.87 247.638 276.87Z" fill="#BEBCBD"/>
<path d="M158.672 150.965L247.638 185.165V274.13L158.672 239.931V150.965ZM158.672 145.5C157.577 145.5 156.506 145.824 155.572 146.459C154.091 147.48 153.207 149.16 153.207 150.965V239.931C153.207 242.197 154.601 244.226 156.705 245.035L245.671 279.235C246.306 279.484 246.966 279.596 247.638 279.596C248.734 279.596 249.804 279.272 250.738 278.637C252.22 277.616 253.104 275.936 253.104 274.13V185.165C253.104 182.899 251.709 180.87 249.593 180.06L160.627 145.861C160.005 145.624 159.332 145.5 158.672 145.5Z" fill="#3C4242"/>
<path d="M227.108 177.271L158.672 206.466V239.931L247.638 274.143V185.165L227.108 177.271Z" fill="#1577EB"/>
<path d="M158.672 312.352C158.124 312.352 157.589 312.19 157.128 311.866C156.381 311.356 155.945 310.509 155.945 309.613V220.647C155.945 219.514 156.643 218.506 157.701 218.095L246.666 183.896C246.978 183.771 247.314 183.709 247.65 183.709C248.198 183.709 248.733 183.871 249.194 184.195C249.941 184.705 250.376 185.552 250.376 186.448V275.414C250.376 276.547 249.679 277.555 248.621 277.966L159.655 312.165C159.332 312.29 159.008 312.352 158.672 312.352Z" fill="#EDEEF2"/>
<path d="M247.638 186.448V275.414L158.672 309.613V220.647L247.638 186.448ZM247.638 180.982C246.978 180.982 246.306 181.107 245.671 181.343L156.705 215.543C154.589 216.352 153.207 218.381 153.207 220.647V309.613C153.207 311.418 154.091 313.099 155.572 314.12C156.494 314.755 157.577 315.078 158.672 315.078C159.332 315.078 160.005 314.954 160.64 314.717L249.605 280.518C251.722 279.709 253.116 277.679 253.116 275.414V186.448C253.116 184.643 252.232 182.962 250.751 181.941C249.804 181.306 248.734 180.982 247.638 180.982Z" fill="#3C4242"/>
<path d="M232.25 192.373V262.59L158.672 290.876V309.625L247.638 275.413V186.447L232.25 192.373Z" fill="#BEBCBD"/>
<path d="M69.707 276.87C69.1592 276.87 68.6238 276.708 68.1632 276.384C67.4162 275.874 66.9805 275.027 66.9805 274.131V185.165C66.9805 184.032 67.6777 183.024 68.7359 182.613L157.702 148.413C158.013 148.289 158.349 148.227 158.685 148.227C159.233 148.227 159.768 148.388 160.229 148.712C160.976 149.223 161.412 150.069 161.412 150.965V239.931C161.412 241.064 160.714 242.073 159.656 242.483L70.6905 276.683C70.3668 276.807 70.0431 276.87 69.707 276.87Z" fill="#EDEEF2"/>
<path d="M158.672 150.965V239.931L69.7064 274.13V185.165L158.672 150.965ZM158.672 145.5C158.012 145.5 157.352 145.624 156.705 145.861L67.7393 180.06C65.6229 180.87 64.2285 182.899 64.2285 185.165V274.13C64.2285 275.936 65.1124 277.616 66.594 278.637C67.5152 279.272 68.5984 279.596 69.6939 279.596C70.3538 279.596 71.0261 279.471 71.661 279.235L160.627 245.035C162.743 244.226 164.125 242.197 164.125 239.931V150.965C164.125 149.16 163.241 147.48 161.76 146.459C160.851 145.824 159.768 145.5 158.672 145.5Z" fill="#3C4242"/>
<path d="M146.061 155.821V230.632L69.707 259.988V274.143L158.673 239.932V150.966L146.061 155.821Z" fill="#BEBCBD"/>
<path d="M158.673 312.352C158.337 312.352 158.014 312.29 157.69 312.165L68.7242 277.966C67.6659 277.555 66.9688 276.547 66.9688 275.414V186.448C66.9688 185.552 67.4169 184.705 68.1515 184.195C68.6121 183.883 69.1475 183.709 69.6952 183.709C70.0314 183.709 70.3551 183.771 70.6788 183.896L159.644 218.095C160.703 218.506 161.4 219.514 161.4 220.647V309.613C161.4 310.509 160.952 311.356 160.217 311.866C159.757 312.19 159.221 312.352 158.673 312.352Z" fill="#1577EB"/>
<path d="M69.7076 186.448L158.673 220.647V309.613L69.7076 275.414V186.448ZM69.7076 180.982C68.612 180.982 67.5414 181.306 66.6076 181.941C65.1261 182.962 64.2422 184.643 64.2422 186.448V275.414C64.2422 277.679 65.6366 279.709 67.753 280.518L156.719 314.717C157.354 314.966 158.013 315.078 158.686 315.078C159.781 315.078 160.852 314.755 161.786 314.12C163.267 313.099 164.151 311.418 164.151 309.613V220.647C164.151 218.381 162.757 216.352 160.653 215.543L71.6871 181.343C71.0397 181.107 70.3674 180.982 69.7076 180.982Z" fill="#3C4242"/>
<path d="M144.567 215.231V288.672L69.707 259.889V275.413L158.673 309.625V220.647L144.567 215.231Z" fill="#BEBCBD"/>
<path d="M176.837 249.991C175.953 249.991 175.106 249.568 174.583 248.796L160.229 227.768C159.918 227.32 159.756 226.772 159.756 226.225V219.178C159.756 218.045 160.453 217.037 161.511 216.626L246.667 183.883C246.991 183.759 247.315 183.696 247.651 183.696C248.535 183.696 249.381 184.132 249.904 184.891L268.068 211.497C268.542 212.181 268.666 213.053 268.417 213.85C268.168 214.646 267.57 215.281 266.786 215.592L177.82 249.792C177.497 249.941 177.161 249.991 176.837 249.991Z" fill="#EDEEF2"/>
<path d="M247.638 186.448L265.802 213.053L176.836 247.252L162.482 226.225V219.178L247.638 186.448ZM247.638 180.982C246.978 180.982 246.318 181.107 245.683 181.343L160.515 214.086C158.398 214.895 157.004 216.925 157.004 219.191V226.237C157.004 227.333 157.34 228.416 157.95 229.312L172.305 250.34C173.35 251.871 175.056 252.73 176.824 252.73C177.484 252.73 178.144 252.606 178.778 252.369L267.744 218.17C269.3 217.572 270.508 216.29 271.006 214.696C271.504 213.103 271.243 211.372 270.309 209.99L252.145 183.385C251.111 181.841 249.406 180.982 247.638 180.982Z" fill="#3C4242"/>
<path d="M232.249 192.374L240.242 204.139L166.664 232.438L176.835 247.265L265.801 213.066L247.637 186.448L232.249 192.374Z" fill="#BEBCBD"/>
<path d="M140.508 249.991C140.185 249.991 139.848 249.929 139.525 249.805L50.5591 215.605C49.7747 215.306 49.1772 214.671 48.9282 213.862C48.6792 213.065 48.8037 212.194 49.2768 211.509L67.4409 184.904C67.9638 184.145 68.8104 183.709 69.6943 183.709C70.018 183.709 70.3541 183.771 70.6778 183.896L156.606 216.937C157.664 217.348 158.361 218.357 158.361 219.489V225.104C158.361 225.652 158.199 226.187 157.888 226.648L142.762 248.821C142.251 249.568 141.392 249.991 140.508 249.991Z" fill="#EDEEF2"/>
<path d="M69.7069 186.448L155.635 219.489V225.104L140.508 247.277L51.5427 213.078L69.7069 186.448ZM69.7069 180.982C67.939 180.982 66.2334 181.841 65.1876 183.373L47.0359 209.978C46.0898 211.36 45.8408 213.09 46.3388 214.684C46.8367 216.277 48.0319 217.56 49.6006 218.157L138.566 252.357C139.201 252.606 139.873 252.718 140.521 252.718C142.289 252.718 143.994 251.859 145.04 250.327L160.167 228.154C160.789 227.246 161.113 226.175 161.113 225.079V219.464C161.113 217.199 159.718 215.169 157.602 214.36L71.6739 181.319C71.0266 181.107 70.3667 180.982 69.7069 180.982Z" fill="#3C4242"/>
<path d="M85.095 192.374L77.1147 204.139L150.693 232.438L140.509 247.265L51.543 213.066L69.7071 186.448L85.095 192.374Z" fill="#BEBCBD"/>
<path d="M162.183 171.395C161.05 171.395 160.005 170.686 159.606 169.578L139.948 114.413L24.6014 122.817C24.5392 122.817 24.4645 122.829 24.4023 122.829C19.0115 122.829 14.6168 118.497 14.5172 113.118L2.73974 12.9353C2.72729 12.8357 2.71484 12.7237 2.71484 12.6116C2.71484 7.15867 7.14694 2.72656 12.5999 2.72656C12.6622 2.72656 12.712 2.72656 12.7742 2.72656L175.368 13.0474C180.771 13.0972 185.153 17.5044 185.153 22.92V101.938C185.153 107.354 180.783 111.761 175.38 111.811L164.91 112.57V168.644C164.91 169.976 163.951 171.109 162.644 171.333C162.495 171.383 162.345 171.395 162.183 171.395Z" fill="#F6F6F6"/>
<path d="M12.6116 5.46543L175.292 15.7987C179.239 15.7987 182.438 18.9983 182.438 22.9448V101.963C182.438 105.91 179.239 109.109 175.292 109.109L162.195 110.068V168.681L141.84 111.549L24.4139 120.102C20.4673 120.102 17.2678 116.903 17.2678 112.956L5.47787 12.624C5.46542 8.665 8.66501 5.46543 12.6116 5.46543ZM12.6116 0C5.65217 0 0 5.66462 0 12.624C0 12.8357 0.0124482 13.0473 0.0373476 13.259L11.8023 113.305C12.0015 120.09 17.579 125.555 24.4139 125.555C24.5508 125.555 24.6753 125.555 24.8123 125.543L138.08 117.289L157.041 170.499C157.825 172.703 159.904 174.134 162.182 174.134C162.494 174.134 162.805 174.109 163.116 174.06C165.731 173.611 167.648 171.333 167.648 168.669V115.135L175.504 114.562C182.351 114.438 187.891 108.835 187.891 101.951V22.9324C187.891 16.0477 182.339 10.4329 175.479 10.3208L12.9602 0.0124524C12.8481 2.65983e-06 12.7361 0 12.6116 0Z" fill="#3C4242"/>
<path d="M41.5329 16.0848L21.9495 14.8398C18.4511 14.8398 15.625 17.6784 15.625 21.1643L21.3643 70.0045" stroke="#3C4242" stroke-width="5.46568" stroke-miterlimit="10" stroke-linecap="round" stroke-linejoin="round"/>
<path d="M175.292 15.7865L163.975 15.0645V85.866C163.975 89.8126 160.775 93.0122 156.829 93.0122L147.827 93.672L147.031 93.7342L143.719 93.9708L16.1094 103.271L17.2548 112.944C17.2548 116.891 20.4543 120.09 24.4009 120.09L141.827 111.537L143.731 116.866L162.194 168.669V110.056L175.292 109.097C179.238 109.097 182.438 105.898 182.438 101.951V22.9327C182.438 18.9861 179.238 15.7865 175.292 15.7865Z" fill="#1577EB"/>
<path d="M175.293 15.7859L172.019 15.5742V94.5054C172.019 98.452 168.819 101.652 164.873 101.652L151.775 102.61V139.424L162.196 168.668V110.055L175.293 109.096C179.239 109.096 182.439 105.897 182.439 101.95V22.932C182.439 18.9854 179.239 15.7859 175.293 15.7859Z" fill="#BEBCBD"/>
<circle cx="66.7218" cy="45.3097" r="5.30973" fill="#2A2F2F"/>
<circle cx="116.278" cy="45.3097" r="5.30973" fill="#2A2F2F"/>
<path d="M83.3594 75.6263C87.2532 68.0747 98.7222 57.5024 113.448 75.6263" stroke="#2A2F2F" stroke-width="5" stroke-linecap="round"/>
</svg>
