<svg width="967" height="726" viewBox="0 0 967 726" fill="none" xmlns="http://www.w3.org/2000/svg">
<path d="M340.143 361.669L355.929 434.269L415.279 366.751L439.454 388.12C439.454 388.12 355.373 513.282 321.818 505.103C288.263 496.923 297.401 449.443 290.27 398.405C283.138 347.367 340.143 361.669 340.143 361.669Z" fill="white"/>
<path d="M325.057 506.7C323.869 506.701 322.684 506.563 321.527 506.288C295.975 500.045 294.403 472.408 292.517 437.415C291.816 424.903 291.067 411.981 289.206 398.574C287.199 384.223 289.979 373.527 297.498 366.775C312.22 353.562 339.417 360.193 340.553 360.483C340.77 360.544 340.967 360.661 341.124 360.823C341.281 360.984 341.392 361.184 341.448 361.403L356.726 431.583L414.48 365.855C414.697 365.612 415.001 365.464 415.326 365.444C415.643 365.428 415.954 365.531 416.197 365.735L440.372 387.127C440.592 387.319 440.734 387.586 440.77 387.877C440.805 388.167 440.732 388.46 440.565 388.7C437.036 393.758 360.764 506.675 325.057 506.7ZM323.655 361.04C315.363 361.04 305.645 362.588 298.996 368.59C292.348 374.592 289.592 384.756 291.478 398.235C293.364 411.714 294.089 424.71 294.814 437.27C296.748 471.271 298.295 498.109 322.083 503.941C335.307 507.135 359.555 488.138 392.191 448.91C414.722 421.83 434.159 393.589 437.761 388.41L415.351 368.517L356.823 435.14C356.677 435.31 356.487 435.437 356.273 435.505C356.06 435.574 355.832 435.581 355.614 435.527C355.395 435.471 355.196 435.355 355.038 435.193C354.88 435.031 354.77 434.828 354.72 434.608L339.103 362.782C334.027 361.671 328.85 361.087 323.655 361.04Z" fill="#3C4242"/>
<path d="M146.524 575.96C141.689 608.678 142.438 617.68 142.438 617.68L342.898 613.663L316.523 498.979L162.818 515.46C155.241 534.985 149.778 555.268 146.524 575.96Z" fill="#3C4242"/>
<path d="M142.439 618.891C142.137 618.898 141.844 618.79 141.619 618.587C141.394 618.385 141.255 618.104 141.231 617.802C141.231 617.415 140.457 608.267 145.316 575.791C148.606 555.002 154.1 534.623 161.707 515.001C161.791 514.799 161.927 514.623 162.101 514.491C162.275 514.36 162.481 514.276 162.698 514.25L316.379 497.77C316.671 497.733 316.968 497.807 317.209 497.977C317.451 498.147 317.62 498.401 317.684 498.69L344.083 613.398C344.123 613.574 344.122 613.758 344.08 613.934C344.038 614.11 343.956 614.274 343.841 614.414C343.735 614.558 343.596 614.674 343.437 614.754C343.277 614.834 343.101 614.875 342.923 614.874L142.464 618.891H142.439ZM147.71 576.154C143.817 602.145 143.551 613.18 143.6 616.447L341.376 612.502L315.581 500.287L163.689 516.574C156.305 535.823 150.95 555.791 147.71 576.154Z" fill="#3C4242"/>
<path d="M144.421 563.69L332.382 542.515C314.879 430.687 305.958 489.808 327.112 385.215L349.401 379.165C339.054 325.127 313.622 301.411 313.622 301.411C288.794 256.665 228.26 282.849 228.26 282.849C228.26 282.849 158.829 288.415 140.916 348.48C129.046 388.216 149.425 443.634 151.964 492.01C152.665 505.538 147.999 504.981 144.421 563.69Z" fill="#1577EB"/>
<path d="M280.043 311.526C273.056 310.461 266.336 309.276 259.107 311.212C248.374 314.14 238.921 320.359 227.873 322.949C216.076 325.683 203.215 325.78 191.151 326.337C187.622 326.506 191.441 330.983 188.395 329.168C177.686 322.779 176.84 308.235 175.849 297.321C173.217 272.103 174.031 246.645 178.266 221.647C182.328 199.867 186.534 179.225 207.639 168.093C223.014 159.986 244.627 155.146 261.476 161.147C278.326 167.149 292.396 182.564 298.271 199.625C304.774 218.501 306.901 237.644 317.828 254.922C322.663 262.545 328.635 269.975 329.916 278.905C331.318 289.674 324.936 300.515 315.774 306.323C306.611 312.131 295.176 313.583 284.346 312.131C282.847 311.962 281.445 311.744 280.043 311.526Z" fill="white"/>
<path d="M189.411 330.814C188.822 330.751 188.257 330.543 187.767 330.209C176.961 323.772 175.68 309.906 174.761 298.749V297.418C172.199 268.79 172.996 243.936 177.179 221.406C181.095 200.376 185.156 178.621 207.18 167.005C221.032 159.745 243.708 153.477 261.985 159.987C278.907 166.012 293.243 181.041 299.504 199.215C301.632 205.362 303.3 211.605 304.919 217.655C308.401 230.554 311.664 242.726 318.941 254.246C319.811 255.649 320.73 257.029 321.648 258.408C325.807 264.676 330.11 271.161 331.077 278.736C332.479 289.384 326.58 300.879 316.402 307.316C305.524 314.213 292.904 314.383 284.25 313.318L279.922 312.689L278.883 312.543C272.331 311.527 266.118 310.583 259.543 312.374C254.575 313.851 249.726 315.704 245.038 317.916C239.601 320.495 233.936 322.561 228.115 324.087C217.834 326.123 207.385 327.193 196.905 327.281L191.152 327.523C191.001 327.487 190.843 327.487 190.692 327.523C190.65 327.804 190.65 328.089 190.692 328.37C190.813 328.736 190.823 329.129 190.719 329.499C190.616 329.87 190.405 330.202 190.112 330.451C189.916 330.634 189.674 330.759 189.411 330.814ZM244.844 159.72C232.068 160.01 219.533 163.257 208.219 169.207C187.235 180.266 183.295 201.417 179.475 221.89C175.317 244.203 174.64 268.838 177.058 297.249L177.179 298.58C178.097 308.913 179.209 321.715 188.323 327.62C188.323 327.04 188.519 326.477 188.879 326.023C189.157 325.709 189.5 325.46 189.885 325.293C190.269 325.126 190.685 325.044 191.103 325.055L196.857 324.813C207.177 324.786 217.471 323.798 227.608 321.86C233.248 320.359 238.735 318.334 243.998 315.81C248.784 313.561 253.729 311.668 258.793 310.148C265.901 308.236 272.356 309.228 279.173 310.148L280.213 310.317C281.615 310.511 283.017 310.728 284.443 310.898C292.735 311.938 304.75 311.793 315.025 305.259C324.404 299.33 329.868 288.779 328.587 279.051C327.668 272.033 323.534 265.789 319.545 259.691C318.627 258.287 317.684 256.883 316.789 255.48C309.319 243.646 305.862 230.699 302.502 218.212C300.882 212.21 299.214 206.112 297.135 199.917C291.091 182.42 277.287 167.973 261.066 162.189C255.837 160.455 250.352 159.62 244.844 159.72Z" fill="#3C4242"/>
<path d="M288.19 210.976C288.19 210.976 300.664 240.016 296.942 262.764C296.064 269.138 293.348 275.118 289.128 279.971C284.907 284.823 279.364 288.339 273.177 290.086L275.595 329.943C275.595 329.943 277.07 350.32 251.903 348.747C244.622 348.277 237.58 345.958 231.442 342.007C225.304 338.057 220.274 332.605 216.826 326.168L209.355 253.06C209.355 253.06 236.601 234.982 232.491 208.822C232.66 208.822 267.303 222.979 288.19 210.976Z" fill="white"/>
<path d="M254.779 350.028H251.999C244.506 349.503 237.267 347.088 230.956 343.01C224.646 338.931 219.468 333.32 215.906 326.7C215.885 326.563 215.885 326.425 215.906 326.288L208.436 253.18C208.422 252.958 208.467 252.737 208.564 252.538C208.661 252.338 208.809 252.168 208.992 252.043C209.234 251.873 235.585 234.086 231.571 209.015C231.545 208.803 231.573 208.588 231.654 208.39C231.735 208.192 231.867 208.019 232.035 207.887C232.203 207.756 232.402 207.67 232.613 207.638C232.825 207.607 233.04 207.631 233.24 207.708C233.578 207.708 267.568 221.478 287.706 209.91C287.863 209.845 288.031 209.811 288.201 209.811C288.372 209.811 288.54 209.845 288.697 209.91C289.017 210.034 289.277 210.277 289.422 210.588C289.93 211.774 301.993 240.136 298.246 263.054C297.335 269.473 294.636 275.506 290.459 280.462C286.282 285.418 280.795 289.097 274.627 291.077L277.045 329.967C277.144 332.578 276.727 335.184 275.818 337.634C274.91 340.084 273.528 342.33 271.75 344.245C267.81 348.068 262.129 350.028 254.779 350.028ZM218.179 325.828C221.564 332.021 226.452 337.262 232.392 341.068C238.332 344.874 245.133 347.123 252.169 347.608C260.122 348.117 266.093 346.398 269.937 342.551C273.027 339.15 274.682 334.683 274.555 330.088L272.137 290.23C272.124 289.943 272.21 289.661 272.382 289.431C272.554 289.201 272.801 289.039 273.08 288.972C279.048 287.32 284.396 283.939 288.452 279.255C292.508 274.57 295.091 268.791 295.877 262.642C299.068 243.04 289.978 218.477 287.706 212.742C269.115 222.422 241.773 213.492 234.231 210.757C236.648 234.086 214.891 250.857 210.926 253.712L218.179 325.828Z" fill="#3C4242"/>
<path d="M274.725 264.965C272.69 264.949 270.66 264.763 268.657 264.408C268.501 264.377 268.353 264.315 268.222 264.226C268.09 264.137 267.977 264.023 267.89 263.89C267.802 263.757 267.742 263.609 267.711 263.453C267.681 263.297 267.682 263.136 267.714 262.981C267.743 262.823 267.803 262.673 267.891 262.54C267.979 262.407 268.093 262.292 268.226 262.204C268.359 262.116 268.509 262.056 268.666 262.027C268.823 261.998 268.984 262.002 269.14 262.037C269.14 262.037 277.191 263.586 280.986 261.311C281.566 258.165 273.951 247.71 268.391 241.249C268.179 241.005 268.073 240.687 268.096 240.365C268.118 240.043 268.268 239.743 268.512 239.531C268.755 239.319 269.073 239.213 269.395 239.235C269.717 239.258 270.017 239.408 270.228 239.652C272.646 242.411 284.298 256.374 283.476 261.432C283.43 261.823 283.294 262.199 283.081 262.531C282.867 262.862 282.58 263.14 282.243 263.344C279.92 264.527 277.329 265.086 274.725 264.965Z" fill="#3C4242"/>
<path d="M265.924 277.985C264.457 277.987 262.992 277.858 261.548 277.598C254.697 276.381 248.511 272.739 244.118 267.337C243.973 267.055 243.945 266.726 244.04 266.422C244.135 266.119 244.345 265.865 244.626 265.716C244.909 265.568 245.239 265.535 245.545 265.625C245.852 265.716 246.112 265.922 246.27 266.2C250.339 270.965 255.937 274.165 262.104 275.251C270.275 276.582 278.398 273.581 286.279 266.321C286.392 266.2 286.529 266.103 286.681 266.037C286.833 265.971 286.997 265.938 287.163 265.938C287.329 265.938 287.493 265.972 287.645 266.038C287.797 266.105 287.933 266.202 288.046 266.323C288.159 266.444 288.246 266.588 288.301 266.744C288.357 266.9 288.379 267.067 288.368 267.232C288.356 267.398 288.311 267.559 288.234 267.706C288.158 267.853 288.052 267.983 287.923 268.088C280.767 274.67 273.418 277.985 265.924 277.985Z" fill="#3C4242"/>
<path d="M273.177 290.085C273.177 290.085 252.096 294.126 239.67 291.779C239.67 291.779 254.997 322.319 275.207 320.819L273.177 290.085Z" fill="#3C4242"/>
<path d="M273.829 322.126C253.836 322.126 239.259 293.57 238.63 292.311C238.535 292.11 238.496 291.887 238.517 291.665C238.539 291.444 238.619 291.232 238.751 291.053C238.882 290.869 239.064 290.728 239.275 290.646C239.485 290.565 239.715 290.546 239.936 290.593C252.023 292.868 272.789 288.948 273.007 288.899C273.176 288.867 273.35 288.872 273.517 288.913C273.684 288.955 273.84 289.033 273.974 289.141C274.107 289.246 274.217 289.378 274.296 289.528C274.375 289.678 274.422 289.843 274.433 290.012L276.464 320.771C276.477 320.93 276.459 321.09 276.41 321.241C276.361 321.393 276.283 321.534 276.18 321.655C276.076 321.777 275.95 321.877 275.808 321.949C275.666 322.022 275.511 322.065 275.352 322.077L273.829 322.126ZM241.966 293.328C245.738 299.934 258.333 319.706 273.853 319.706L271.992 291.513C267.568 292.311 252.724 294.635 241.966 293.328Z" fill="#3C4242"/>
<path d="M395.189 291.489L447.576 288.924L421.322 400.099L364.994 405.64L395.189 291.489Z" fill="#3C4242"/>
<path d="M365.042 406.85C364.868 406.854 364.696 406.818 364.537 406.747C364.378 406.676 364.237 406.571 364.123 406.439C363.994 406.288 363.903 406.108 363.857 405.914C363.811 405.721 363.811 405.519 363.858 405.326L394.052 291.199C394.115 290.949 394.258 290.726 394.458 290.565C394.659 290.403 394.907 290.311 395.164 290.303L447.527 287.714C447.716 287.698 447.905 287.73 448.078 287.806C448.251 287.882 448.402 288 448.518 288.149C448.641 288.295 448.727 288.467 448.769 288.652C448.811 288.838 448.808 289.03 448.76 289.214L422.53 400.389C422.471 400.634 422.336 400.855 422.146 401.02C421.955 401.184 421.717 401.286 421.467 401.309L365.042 406.85ZM396.18 292.675L366.638 404.261L420.403 398.985L446.077 290.206L396.18 292.675Z" fill="#3C4242"/>
<path d="M327.111 386.449C326.803 386.45 326.506 386.332 326.281 386.121C326.056 385.909 325.921 385.62 325.902 385.312C324.852 369.292 321.312 353.534 315.41 338.606C315.28 338.314 315.27 337.981 315.383 337.682C315.496 337.383 315.724 337.14 316.015 337.008C316.159 336.94 316.315 336.902 316.474 336.895C316.633 336.889 316.792 336.915 316.941 336.971C317.09 337.028 317.226 337.114 317.341 337.224C317.456 337.334 317.548 337.467 317.61 337.613C323.635 352.8 327.249 368.837 328.32 385.142C328.34 385.466 328.232 385.784 328.019 386.029C327.807 386.273 327.507 386.424 327.184 386.449H327.111Z" fill="#3C4242"/>
<path d="M244.916 239.338C244.796 239.361 244.673 239.361 244.553 239.338C244.25 239.243 243.996 239.032 243.847 238.752C243.697 238.471 243.665 238.142 243.755 237.838C244.74 234.717 246.911 232.11 249.799 230.578C251.252 230.01 252.814 229.775 254.369 229.888C255.925 230.001 257.436 230.46 258.792 231.231C259.058 231.382 259.256 231.629 259.348 231.921C259.439 232.213 259.417 232.528 259.285 232.804C259.154 233.08 258.922 233.296 258.638 233.408C258.353 233.521 258.037 233.521 257.753 233.409C256.704 232.802 255.534 232.433 254.327 232.328C253.119 232.224 251.904 232.386 250.766 232.804C248.545 234.009 246.868 236.017 246.076 238.418C246.012 238.679 245.863 238.91 245.653 239.077C245.443 239.243 245.184 239.335 244.916 239.338Z" fill="#3C4242"/>
<path d="M278.399 232.174H278.182C277.866 232.11 277.588 231.924 277.408 231.658C277.227 231.391 277.158 231.064 277.215 230.746C277.405 229.752 277.822 228.815 278.435 228.008C279.047 227.202 279.838 226.549 280.744 226.1C282.872 225.253 285.579 225.931 288.456 228.084C288.686 228.281 288.834 228.557 288.87 228.858C288.906 229.159 288.829 229.462 288.653 229.708C288.477 229.954 288.215 230.125 287.919 230.188C287.623 230.25 287.314 230.199 287.054 230.045C284.806 228.423 282.944 227.842 281.663 228.326C281.132 228.628 280.674 229.042 280.319 229.54C279.964 230.037 279.721 230.606 279.608 231.206C279.547 231.482 279.394 231.728 279.174 231.904C278.955 232.08 278.681 232.175 278.399 232.174Z" fill="#3C4242"/>
<path d="M174.471 259.884C174.471 259.884 177.42 268.741 168.065 294.393C158.709 320.045 159.096 339.695 182.57 343.229C206.044 346.762 219.775 343.93 222.869 323.869C225.964 303.807 207.905 281.785 207.905 281.785" fill="white"/>
<path d="M197.219 345.721C192.254 345.659 187.3 345.222 182.4 344.414C173.794 343.132 167.702 339.574 164.341 333.912C159.361 325.49 160.207 312.422 166.928 293.957C175.945 269.249 173.358 260.344 173.334 260.271C173.283 260.112 173.264 259.945 173.278 259.778C173.292 259.612 173.338 259.45 173.415 259.302C173.491 259.154 173.596 259.022 173.723 258.914C173.85 258.806 173.997 258.725 174.156 258.674C174.315 258.623 174.482 258.604 174.648 258.618C174.814 258.631 174.976 258.678 175.124 258.754C175.272 258.831 175.404 258.936 175.512 259.063C175.619 259.19 175.701 259.338 175.752 259.497C175.752 259.884 178.725 269.177 169.321 294.804C162.867 312.543 162.069 324.933 166.541 332.677C169.563 337.784 174.906 340.833 182.883 342.019C205.197 345.382 218.735 343.471 221.805 323.748C224.779 304.557 207.3 282.753 207.107 282.608C207.004 282.486 206.928 282.346 206.881 282.194C206.834 282.042 206.817 281.883 206.833 281.725C206.849 281.567 206.896 281.413 206.972 281.274C207.048 281.135 207.152 281.012 207.276 280.914C207.523 280.713 207.84 280.618 208.157 280.65C208.474 280.682 208.765 280.837 208.968 281.083C209.718 282.003 227.341 303.928 224.174 324.207C221.515 340.567 211.748 345.721 197.219 345.721Z" fill="#3C4242"/>
<path d="M824.489 108.319H484.033C480.019 108.313 476.165 109.898 473.316 112.728C470.466 115.558 468.852 119.402 468.826 123.42V227.214L430.146 274.646L468.826 260.9V552.68C468.826 556.717 470.429 560.589 473.28 563.443C476.132 566.298 480 567.902 484.033 567.902H824.489C828.522 567.902 832.39 566.298 835.241 563.443C838.093 560.589 839.695 556.717 839.695 552.68V123.42C839.663 119.404 838.047 115.563 835.199 112.735C832.351 109.906 828.501 108.319 824.489 108.319Z" fill="white"/>
<path d="M824.576 569.112H484.119C479.767 569.105 475.596 567.372 472.519 564.292C469.442 561.212 467.711 557.036 467.704 552.68V262.594L430.644 275.88C430.395 275.972 430.123 275.979 429.869 275.9C429.616 275.821 429.395 275.661 429.242 275.445C429.085 275.235 429 274.98 429 274.719C429 274.457 429.085 274.202 429.242 273.993L467.656 226.875V123.42C467.662 119.067 469.394 114.893 472.472 111.817C475.55 108.741 479.721 107.013 484.071 107.013H824.576C828.925 107.013 833.096 108.741 836.174 111.817C839.252 114.893 840.984 119.067 840.99 123.42V552.68C840.984 557.036 839.252 561.212 836.175 564.292C833.099 567.372 828.927 569.105 824.576 569.112ZM468.913 259.69C469.163 259.692 469.407 259.768 469.614 259.908C469.773 260.019 469.903 260.168 469.992 260.341C470.08 260.514 470.125 260.706 470.122 260.9V552.68C470.128 556.394 471.605 559.954 474.228 562.581C476.852 565.207 480.409 566.685 484.119 566.692H824.576C828.286 566.685 831.842 565.207 834.466 562.581C837.09 559.954 838.566 556.394 838.573 552.68V123.42C838.566 119.708 837.089 116.151 834.465 113.528C831.84 110.906 828.284 109.433 824.576 109.433H484.119C480.411 109.433 476.854 110.906 474.23 113.528C471.606 116.151 470.128 119.708 470.122 123.42V227.214C470.118 227.487 470.025 227.75 469.856 227.964L433.908 272.057L468.502 259.763C468.634 259.716 468.773 259.691 468.913 259.69Z" fill="#3C4242"/>
<path d="M427.075 405.641C446.415 378.174 446.415 378.174 445.327 368.711C444.481 361.451 440.854 355.087 437.059 349.085C432.224 341.438 421.659 329.725 417.719 345.334C415.761 352.836 412.739 362.056 414.818 369.752C416.752 376.867 422.07 382.699 424.996 389.378" fill="white"/>
<path d="M427.076 406.85C426.825 406.849 426.581 406.773 426.374 406.632C426.116 406.443 425.941 406.16 425.886 405.844C425.832 405.528 425.903 405.203 426.084 404.938C445.183 377.858 445.183 377.858 444.119 368.856C443.297 361.596 439.501 355.207 436.02 349.738C432.539 344.269 427.027 338.388 423.449 338.921C421.032 339.308 419.533 342.793 418.783 345.648L418.082 348.262C416.245 355.135 414.118 362.927 415.907 369.437C417.235 373.504 419.14 377.359 421.564 380.883C423.225 383.45 424.711 386.126 426.012 388.894C426.14 389.189 426.146 389.523 426.028 389.822C425.91 390.122 425.678 390.362 425.383 390.491C425.088 390.619 424.755 390.625 424.455 390.507C424.156 390.389 423.916 390.157 423.788 389.862C422.528 387.194 421.091 384.615 419.485 382.142C416.936 378.416 414.941 374.34 413.562 370.042C411.628 362.903 413.828 354.772 415.762 347.608L416.463 345.019C417.792 339.84 420.016 336.985 423.062 336.501C429.372 335.508 436.141 345.358 438.075 348.407C441.701 354.118 445.618 360.846 446.536 368.541C447.697 378.463 447.697 378.463 428.067 406.318C427.958 406.482 427.811 406.616 427.638 406.709C427.465 406.802 427.272 406.85 427.076 406.85Z" fill="#3C4242"/>
<path d="M189.629 442.86C189.629 442.86 276.417 523.156 301.22 513.984C326.024 504.812 354.913 466.528 371.932 439.835C388.952 413.143 410.999 376.262 414.239 359.83C417.478 343.398 412.401 331.129 406.261 334.202C400.12 337.276 377.13 359.806 377.13 359.806C377.13 359.806 384.89 337.784 381.264 337.687C377.638 337.59 366.952 347.367 363.399 378.827L289.665 453.847L229.227 394.847" fill="white"/>
<path d="M296.821 515.871C267.158 515.871 192.167 446.829 188.807 443.731C188.693 443.619 188.604 443.485 188.542 443.337C188.481 443.19 188.449 443.032 188.449 442.872C188.449 442.712 188.481 442.554 188.542 442.407C188.604 442.259 188.693 442.125 188.807 442.013C189.037 441.79 189.345 441.665 189.665 441.665C189.985 441.665 190.293 441.79 190.523 442.013C190.741 442.231 212.474 462.293 236.939 480.951C269.044 505.441 291.14 516.501 300.882 512.895C328.998 502.513 361.658 453.895 370.99 439.23C388.468 411.811 409.96 375.729 413.127 359.66C415.544 347.923 413.32 338.219 409.911 335.63C409.502 335.271 408.991 335.049 408.45 334.993C407.909 334.936 407.364 335.049 406.889 335.315C400.967 338.268 378.266 360.532 378.024 360.749C377.834 360.942 377.583 361.062 377.313 361.088C377.044 361.115 376.774 361.046 376.55 360.895C376.317 360.754 376.14 360.538 376.048 360.283C375.955 360.027 375.953 359.748 376.042 359.491C379.016 351.045 381.627 341.075 381.022 338.994C378.605 339.502 368.234 347.343 364.656 378.899C364.613 379.168 364.496 379.42 364.317 379.625L290.584 454.645C290.473 454.758 290.342 454.848 290.196 454.909C290.051 454.97 289.895 455.001 289.737 455.001C289.58 455.001 289.424 454.97 289.278 454.909C289.133 454.848 289.002 454.758 288.891 454.645L228.454 395.646C228.223 395.421 228.091 395.114 228.086 394.792C228.082 394.469 228.205 394.159 228.43 393.928C228.654 393.696 228.961 393.564 229.283 393.56C229.605 393.555 229.915 393.679 230.146 393.903L289.834 451.983L362.359 378.101C366.01 346.81 376.864 336.428 381.336 336.428C381.651 336.427 381.961 336.506 382.236 336.659C382.511 336.811 382.742 337.032 382.908 337.3C384.528 339.72 382.062 348.77 379.91 355.425C386.679 348.916 400.991 335.436 405.802 333.04C406.683 332.573 407.681 332.374 408.673 332.469C409.666 332.564 410.609 332.947 411.386 333.573C416.076 337.179 417.817 348.286 415.496 359.999C412.256 376.455 390.62 412.804 373.02 440.416C360.933 459.413 329.747 504.691 301.704 515.049C300.139 515.616 298.485 515.895 296.821 515.871Z" fill="#3C4242"/>
<path d="M654.249 311.962C641.86 311.962 629.75 308.285 619.449 301.395C609.149 294.505 601.12 284.712 596.379 273.255C591.638 261.798 590.398 249.19 592.815 237.027C595.232 224.864 601.197 213.692 609.957 204.923C618.717 196.154 629.878 190.182 642.029 187.762C654.179 185.343 666.774 186.585 678.219 191.331C689.665 196.076 699.447 204.113 706.33 214.424C713.213 224.736 716.886 236.859 716.886 249.26C716.867 265.884 710.262 281.821 698.519 293.576C686.776 305.331 670.855 311.943 654.249 311.962ZM654.249 189.002C642.337 189.002 630.694 192.538 620.79 199.163C610.886 205.788 603.168 215.204 598.611 226.221C594.053 237.237 592.862 249.359 595.188 261.053C597.513 272.748 603.251 283.489 611.675 291.919C620.1 300.348 630.832 306.088 642.515 308.411C654.198 310.734 666.307 309.537 677.311 304.971C688.314 300.404 697.717 292.674 704.332 282.757C710.946 272.841 714.474 261.184 714.469 249.26C714.443 233.282 708.09 217.966 696.801 206.671C685.512 195.375 670.21 189.021 654.249 189.002Z" fill="#D1D3D4"/>
<path d="M797.944 145.757C797.787 145.763 797.63 145.736 797.485 145.678C797.339 145.619 797.207 145.531 797.098 145.418C796.984 145.305 796.895 145.171 796.833 145.024C796.772 144.877 796.74 144.718 796.74 144.559C796.74 144.399 796.772 144.241 796.833 144.093C796.895 143.946 796.984 143.812 797.098 143.7L812.618 128.26C812.844 128.038 813.148 127.914 813.464 127.914C813.781 127.914 814.084 128.038 814.31 128.26C814.424 128.372 814.514 128.506 814.575 128.654C814.636 128.801 814.668 128.959 814.668 129.119C814.668 129.279 814.636 129.437 814.575 129.584C814.514 129.732 814.424 129.866 814.31 129.978L798.79 145.515C798.673 145.61 798.537 145.681 798.392 145.723C798.246 145.765 798.094 145.776 797.944 145.757Z" fill="#D1D3D4"/>
<path d="M813.464 145.757C813.307 145.763 813.151 145.736 813.005 145.678C812.859 145.62 812.727 145.531 812.618 145.418L797.098 129.881C796.984 129.769 796.895 129.635 796.833 129.488C796.772 129.34 796.74 129.182 796.74 129.022C796.74 128.863 796.772 128.704 796.833 128.557C796.895 128.41 796.984 128.276 797.098 128.163C797.324 127.942 797.628 127.817 797.944 127.817C798.26 127.817 798.564 127.942 798.79 128.163L814.31 143.7C814.424 143.812 814.514 143.946 814.575 144.093C814.636 144.241 814.668 144.399 814.668 144.559C814.668 144.719 814.636 144.877 814.575 145.024C814.514 145.172 814.424 145.305 814.31 145.418C814.201 145.531 814.069 145.62 813.924 145.678C813.778 145.736 813.621 145.763 813.464 145.757Z" fill="#D1D3D4"/>
<path d="M698.246 233.458C697.818 234.15 697.333 234.806 696.796 235.418L645.255 286.94C644.99 287.339 644.631 287.667 644.209 287.893C643.787 288.12 643.316 288.239 642.837 288.239C642.358 288.239 641.887 288.12 641.465 287.893C641.044 287.667 640.684 287.339 640.42 286.94C630.75 276.969 621.08 266.983 611.41 256.98C611.045 256.706 610.751 256.347 610.555 255.935C610.358 255.523 610.265 255.069 610.281 254.613C610.298 254.156 610.424 253.711 610.65 253.314C610.876 252.917 611.195 252.581 611.579 252.334L618.831 245.776C619.092 245.448 619.423 245.183 619.799 245.001C620.176 244.82 620.589 244.725 621.007 244.725C621.425 244.725 621.838 244.82 622.215 245.001C622.592 245.183 622.922 245.448 623.183 245.776L640.323 263.248C642.112 265.063 643.441 265.087 645.158 263.248L685.192 223.342C685.452 222.938 685.81 222.605 686.233 222.375C686.655 222.144 687.128 222.023 687.609 222.023C688.09 222.023 688.563 222.144 688.986 222.375C689.408 222.605 689.766 222.938 690.027 223.342C692.299 225.617 694.572 227.892 696.796 230.191C697.309 230.793 697.778 231.432 698.198 232.103L698.246 233.458Z" fill="#1577EB"/>
<path d="M249.945 255.649C246.734 255.667 243.584 254.77 240.864 253.062C238.143 251.355 235.964 248.908 234.58 246.007C233.197 243.106 232.667 239.871 233.052 236.68C233.436 233.488 234.72 230.472 236.753 227.984C238.787 225.496 241.485 223.638 244.533 222.628C247.582 221.618 250.855 221.496 253.969 222.279C257.084 223.061 259.912 224.714 262.123 227.045C264.335 229.375 265.838 232.288 266.457 235.442C267.323 239.813 266.433 244.35 263.98 248.069C261.527 251.788 257.71 254.39 253.354 255.31C252.231 255.531 251.09 255.644 249.945 255.649ZM249.945 224.407C248.979 224.397 248.014 224.494 247.069 224.697C244.239 225.242 241.635 226.617 239.59 228.649C237.544 230.68 236.149 233.276 235.583 236.104C235.017 238.932 235.305 241.865 236.411 244.528C237.517 247.192 239.39 249.466 241.792 251.059C244.193 252.653 247.015 253.494 249.896 253.476C252.777 253.458 255.588 252.582 257.97 250.958C260.351 249.335 262.196 247.038 263.269 244.361C264.341 241.683 264.592 238.747 263.991 235.926C263.31 232.697 261.55 229.796 259.001 227.702C256.452 225.608 253.267 224.446 249.97 224.407H249.945Z" fill="#3C4242"/>
<path d="M285.604 248.34C282.581 248.304 279.624 247.457 277.038 245.889C274.453 244.32 272.335 242.087 270.904 239.422C269.472 236.757 268.781 233.756 268.9 230.733C269.019 227.709 269.946 224.772 271.582 222.228C273.434 219.464 276.059 217.307 279.128 216.027C282.197 214.747 285.575 214.4 288.84 215.03C292.105 215.66 295.112 217.238 297.486 219.569C299.86 221.899 301.495 224.878 302.188 228.133C303.054 232.504 302.164 237.041 299.711 240.76C297.258 244.479 293.441 247.081 289.085 248.001C287.938 248.227 286.773 248.34 285.604 248.34ZM285.604 217.098C284.63 217.099 283.658 217.196 282.703 217.388C279.873 217.933 277.27 219.308 275.224 221.34C273.179 223.371 271.784 225.967 271.218 228.795C270.651 231.623 270.94 234.556 272.045 237.219C273.151 239.883 275.024 242.157 277.426 243.75C279.828 245.344 282.649 246.185 285.53 246.167C288.412 246.149 291.223 245.273 293.604 243.649C295.986 242.026 297.83 239.729 298.903 237.052C299.975 234.374 300.227 231.438 299.625 228.617C298.945 225.392 297.189 222.494 294.645 220.401C292.101 218.307 288.921 217.142 285.628 217.098H285.604Z" fill="#3C4242"/>
<path d="M264.983 235.466C264.762 235.471 264.544 235.412 264.354 235.297C264.218 235.217 264.099 235.111 264.004 234.985C263.91 234.858 263.841 234.714 263.803 234.561C263.765 234.408 263.757 234.248 263.782 234.092C263.806 233.936 263.861 233.786 263.944 233.651C264.283 233.108 264.728 232.637 265.251 232.267C265.774 231.896 266.365 231.634 266.99 231.494C267.616 231.354 268.262 231.341 268.893 231.453C269.524 231.566 270.126 231.803 270.664 232.151C270.908 232.318 271.083 232.569 271.154 232.857C271.226 233.144 271.19 233.448 271.053 233.71C270.916 233.972 270.687 234.175 270.411 234.281C270.134 234.386 269.829 234.386 269.552 234.281C267.135 233.046 266.119 234.692 266.023 234.886C265.914 235.064 265.761 235.211 265.579 235.313C265.397 235.415 265.192 235.468 264.983 235.466Z" fill="#3C4242"/>
<path d="M234.062 238.854L205.027 242.387L234.062 238.854Z" fill="white"/>
<path d="M205.028 243.597C204.707 243.617 204.392 243.508 204.152 243.294C203.911 243.081 203.766 242.781 203.746 242.46C203.727 242.139 203.836 241.824 204.049 241.583C204.262 241.343 204.562 241.197 204.883 241.177L233.893 237.62C234.05 237.6 234.21 237.612 234.363 237.655C234.516 237.697 234.659 237.771 234.783 237.87C234.907 237.97 235.01 238.093 235.085 238.233C235.161 238.373 235.207 238.526 235.222 238.685C235.263 239.002 235.177 239.323 234.982 239.577C234.787 239.831 234.5 239.998 234.183 240.04L205.173 243.573L205.028 243.597Z" fill="#3C4242"/>
<path d="M207.179 252.939C207.179 252.939 197.268 219.422 210.54 196.601C221.539 177.677 250.477 164.585 271.775 163.883C266.649 159.633 260.416 156.939 253.811 156.12C247.205 155.301 240.504 156.391 234.497 159.261C212.401 168.941 200.652 179.855 196.276 199.699C190.039 228.4 207.179 252.939 207.179 252.939Z" fill="#3C4242"/>
<path d="M207.18 254.1C206.986 254.097 206.797 254.05 206.625 253.961C206.453 253.873 206.304 253.747 206.188 253.591C206.019 253.325 188.807 228.278 195.116 199.408C199.323 180.048 210.25 168.48 234.038 158.098C240.283 155.161 247.231 154.056 254.078 154.913C260.924 155.77 267.388 158.552 272.718 162.938C272.887 163.105 273.004 163.317 273.055 163.549C273.107 163.781 273.09 164.022 273.008 164.245C272.928 164.471 272.781 164.666 272.587 164.805C272.392 164.943 272.159 165.018 271.92 165.019C251.42 165.77 222.627 178.233 211.579 197.23C198.718 219.324 208.243 252.26 208.34 252.599C208.42 252.873 208.401 253.167 208.286 253.428C208.171 253.689 207.968 253.902 207.711 254.027C207.54 254.085 207.36 254.109 207.18 254.1ZM249.897 157.058C244.76 157.095 239.687 158.208 235.005 160.325C212.015 170.392 201.498 181.5 197.461 199.964C193.424 218.429 199.613 235.901 204.158 245.121C202.03 233.626 200 212.33 209.5 195.995C220.379 177.289 247.794 164.681 268.536 162.866C263.039 159.12 256.546 157.114 249.897 157.106V157.058Z" fill="#3C4242"/>
<path d="M222.989 247.034C222.989 247.034 208.92 220.22 196.179 238.467C183.439 256.714 204.858 274.622 217.042 272.202" fill="white"/>
<path d="M214.65 273.654C207.664 273.654 199.348 268.814 194.682 261.554C192.227 258.042 190.952 253.838 191.044 249.552C191.135 245.266 192.587 241.121 195.189 237.717C198.55 232.877 202.442 230.457 206.528 230.82C216.198 231.425 223.74 245.775 224.079 246.38C224.223 246.67 224.248 247.004 224.149 247.312C224.049 247.62 223.833 247.876 223.547 248.026C223.264 248.171 222.936 248.199 222.633 248.104C222.33 248.009 222.076 247.799 221.927 247.518C221.927 247.373 214.675 233.748 206.383 233.24C203.143 233.022 200.024 235.006 197.172 239.096C194.868 242.118 193.581 245.793 193.494 249.593C193.407 253.393 194.525 257.123 196.688 260.247C201.378 267.507 210.396 272.202 216.802 270.943C217.119 270.886 217.446 270.956 217.712 271.137C217.979 271.317 218.164 271.596 218.228 271.911C218.285 272.226 218.215 272.55 218.034 272.813C217.853 273.076 217.575 273.256 217.261 273.315C216.404 273.514 215.53 273.628 214.65 273.654Z" fill="#3C4242"/>
<path d="M223.232 390.588C223.065 390.586 222.9 390.551 222.746 390.484C222.593 390.418 222.454 390.321 222.338 390.2C222.048 389.862 192.385 357.676 172.03 349.883C171.865 349.841 171.711 349.765 171.577 349.66C171.443 349.554 171.334 349.422 171.255 349.271C171.176 349.12 171.13 348.954 171.119 348.784C171.109 348.614 171.135 348.443 171.195 348.284C171.255 348.124 171.347 347.979 171.467 347.858C171.587 347.737 171.731 347.643 171.89 347.582C172.048 347.52 172.218 347.493 172.388 347.502C172.558 347.51 172.724 347.555 172.876 347.633C193.787 355.74 222.894 387.2 224.127 388.555C224.35 388.785 224.475 389.093 224.475 389.414C224.475 389.735 224.35 390.043 224.127 390.273C224.007 390.383 223.866 390.468 223.712 390.522C223.558 390.576 223.395 390.598 223.232 390.588Z" fill="#3C4242"/>
<path d="M582.981 213.928C582.731 213.927 582.487 213.851 582.28 213.71L555.687 195.318C555.429 195.129 555.254 194.846 555.199 194.53C555.145 194.214 555.216 193.889 555.397 193.624C555.487 193.494 555.601 193.383 555.734 193.298C555.867 193.213 556.015 193.155 556.17 193.128C556.326 193.101 556.485 193.105 556.639 193.14C556.792 193.176 556.937 193.242 557.065 193.334L583.658 211.726C583.79 211.813 583.903 211.926 583.99 212.058C584.078 212.19 584.138 212.339 584.167 212.494C584.196 212.65 584.194 212.81 584.161 212.965C584.127 213.119 584.063 213.266 583.972 213.396C583.862 213.558 583.715 213.691 583.542 213.784C583.37 213.877 583.177 213.926 582.981 213.928Z" fill="#D1D3D4"/>
<path d="M556.435 305.428C556.241 305.433 556.048 305.389 555.875 305.3C555.702 305.212 555.554 305.081 555.444 304.92C555.263 304.655 555.192 304.33 555.246 304.014C555.3 303.697 555.475 303.415 555.734 303.226L582.327 284.834C582.458 284.742 582.606 284.677 582.763 284.643C582.919 284.61 583.081 284.607 583.239 284.637C583.396 284.666 583.546 284.726 583.68 284.814C583.814 284.902 583.929 285.015 584.019 285.148C584.11 285.278 584.174 285.424 584.208 285.579C584.241 285.734 584.243 285.894 584.214 286.049C584.185 286.205 584.124 286.353 584.037 286.485C583.95 286.617 583.837 286.73 583.705 286.818L557.112 305.21C556.916 305.353 556.678 305.429 556.435 305.428Z" fill="#D1D3D4"/>
<path d="M580.2 250.47H556.484C556.164 250.47 555.856 250.343 555.63 250.116C555.403 249.889 555.276 249.581 555.276 249.26C555.276 248.939 555.403 248.631 555.63 248.404C555.856 248.178 556.164 248.05 556.484 248.05H580.2C580.521 248.05 580.828 248.178 581.055 248.404C581.281 248.631 581.409 248.939 581.409 249.26C581.409 249.581 581.281 249.889 581.055 250.116C580.828 250.343 580.521 250.47 580.2 250.47Z" fill="#D1D3D4"/>
<path d="M727.958 213.928C727.763 213.926 727.57 213.877 727.397 213.784C727.225 213.691 727.077 213.558 726.967 213.396C726.876 213.266 726.812 213.119 726.779 212.965C726.745 212.81 726.743 212.65 726.772 212.494C726.802 212.339 726.862 212.19 726.949 212.058C727.037 211.926 727.15 211.813 727.282 211.726L753.874 193.334C754.002 193.242 754.147 193.176 754.301 193.14C754.455 193.105 754.614 193.101 754.769 193.128C754.924 193.155 755.073 193.213 755.206 193.298C755.338 193.383 755.453 193.494 755.542 193.624C755.635 193.754 755.701 193.901 755.737 194.057C755.772 194.213 755.777 194.374 755.75 194.532C755.723 194.689 755.665 194.84 755.579 194.975C755.494 195.11 755.383 195.226 755.252 195.318L728.66 213.71C728.453 213.851 728.209 213.927 727.958 213.928Z" fill="#D1D3D4"/>
<path d="M754.502 305.428C754.26 305.426 754.023 305.35 753.825 305.21L727.233 286.818C727.101 286.73 726.988 286.617 726.9 286.485C726.813 286.353 726.753 286.205 726.724 286.049C726.694 285.894 726.696 285.734 726.73 285.579C726.763 285.424 726.828 285.278 726.918 285.148C727.008 285.015 727.123 284.902 727.257 284.814C727.391 284.726 727.541 284.666 727.699 284.637C727.856 284.607 728.018 284.61 728.175 284.643C728.331 284.677 728.479 284.742 728.611 284.834L755.203 303.226C755.334 303.317 755.445 303.434 755.531 303.569C755.616 303.704 755.674 303.855 755.701 304.012C755.728 304.17 755.723 304.331 755.688 304.487C755.652 304.642 755.586 304.789 755.493 304.92C755.384 305.081 755.236 305.212 755.063 305.3C754.889 305.389 754.697 305.433 754.502 305.428Z" fill="#D1D3D4"/>
<path d="M754.503 250.47H730.787C730.466 250.47 730.159 250.342 729.932 250.115C729.705 249.888 729.578 249.581 729.578 249.26C729.578 248.939 729.705 248.631 729.932 248.404C730.159 248.177 730.466 248.05 730.787 248.05H754.503C754.823 248.05 755.131 248.177 755.357 248.404C755.584 248.631 755.711 248.939 755.711 249.26C755.711 249.581 755.584 249.888 755.357 250.115C755.131 250.342 754.823 250.47 754.503 250.47Z" fill="#D1D3D4"/>
<rect x="562" y="463" width="190" height="54" rx="8" fill="#1577EB"/>
<path d="M591.379 488.504C590.695 487.55 589.507 486.83 588.013 486.83C585.493 486.83 583.819 488.648 583.819 491.15C583.819 493.634 585.493 495.452 588.013 495.452C589.507 495.452 590.695 494.696 591.379 493.76L592.747 494.786C591.739 496.244 590.083 497.144 588.013 497.144C584.539 497.144 582.127 494.624 582.127 491.15C582.127 487.676 584.539 485.156 588.013 485.156C590.083 485.156 591.739 486.056 592.747 487.514L591.379 488.504ZM598.115 497.162C595.613 497.162 593.867 495.326 593.867 492.86C593.867 490.358 595.613 488.558 598.115 488.558C600.599 488.558 602.327 490.358 602.327 492.86C602.327 495.326 600.599 497.162 598.115 497.162ZM598.115 495.614C599.681 495.614 600.725 494.426 600.725 492.86C600.725 491.276 599.681 490.124 598.115 490.124C596.531 490.124 595.487 491.276 595.487 492.86C595.487 494.426 596.531 495.614 598.115 495.614ZM608.386 488.594C609.988 488.594 611.662 489.512 611.662 491.906V497H610.042V492.14C610.042 490.61 608.962 489.98 607.918 489.98C606.892 489.98 605.83 490.61 605.83 492.14V497H604.21V488.72H605.83V489.728C606.46 488.918 607.432 488.594 608.386 488.594ZM617.877 489.962H615.951V494.642C615.951 495.542 616.527 495.704 617.103 495.704H617.787V497H616.473C615.087 497 614.331 496.226 614.331 494.876V489.962H613.197V488.72H614.331V486.182H615.951V488.72H617.877V489.962ZM620.544 487.136C620.076 487.136 619.59 486.758 619.59 486.182C619.59 485.588 620.076 485.264 620.544 485.264C621.012 485.264 621.48 485.588 621.48 486.182C621.48 486.758 621.012 487.136 620.544 487.136ZM621.354 497H619.734V488.72H621.354V497ZM627.809 488.594C629.411 488.594 631.085 489.512 631.085 491.906V497H629.465V492.14C629.465 490.61 628.385 489.98 627.341 489.98C626.315 489.98 625.253 490.61 625.253 492.14V497H623.633V488.72H625.253V489.728C625.883 488.918 626.855 488.594 627.809 488.594ZM639.081 488.72H640.701V497H639.081V496.01C638.451 496.82 637.479 497.144 636.525 497.144C634.923 497.144 633.249 496.208 633.249 493.814V488.72H634.869V493.58C634.869 495.11 635.949 495.74 636.993 495.74C638.019 495.74 639.081 495.11 639.081 493.58V488.72ZM646.698 488.576C649.11 488.576 650.676 490.394 650.676 492.86V493.328H644.16C644.322 494.804 645.366 495.758 646.806 495.758C647.994 495.758 648.75 495.218 649.146 494.642L650.28 495.452C649.56 496.496 648.318 497.162 646.806 497.162C644.286 497.162 642.594 495.326 642.594 492.86C642.594 490.394 644.214 488.576 646.698 488.576ZM646.698 489.872C645.276 489.872 644.358 490.826 644.16 492.266H649.164C648.966 490.88 648.084 489.872 646.698 489.872ZM655.811 494.462L657.179 493.526C657.575 494.462 659.015 495.524 660.869 495.524C662.669 495.524 663.371 494.84 663.371 493.706C663.371 492.356 661.229 492.014 660.239 491.708C659.177 491.402 656.243 490.88 656.243 488.432C656.243 486.128 658.223 485.084 660.689 485.084C662.885 485.084 664.649 486.218 665.099 487.478L663.731 488.324C663.407 487.55 662.129 486.776 660.509 486.776C658.979 486.776 658.151 487.352 658.151 488.342C658.151 489.62 660.131 489.926 661.211 490.232C662.183 490.538 665.243 491.186 665.243 493.634C665.243 495.974 663.497 497.216 660.689 497.216C658.115 497.216 656.387 495.938 655.811 494.462ZM671.21 488.594C672.812 488.594 674.486 489.512 674.486 491.906V497H672.866V492.14C672.866 490.61 671.786 489.98 670.742 489.98C669.716 489.98 668.654 490.61 668.654 492.14V497H667.034V485.3H668.654V489.728C669.284 488.918 670.256 488.594 671.21 488.594ZM680.627 497.162C678.125 497.162 676.379 495.326 676.379 492.86C676.379 490.358 678.125 488.558 680.627 488.558C683.111 488.558 684.839 490.358 684.839 492.86C684.839 495.326 683.111 497.162 680.627 497.162ZM680.627 495.614C682.193 495.614 683.237 494.426 683.237 492.86C683.237 491.276 682.193 490.124 680.627 490.124C679.043 490.124 677.999 491.276 677.999 492.86C677.999 494.426 679.043 495.614 680.627 495.614ZM691.185 488.594C693.525 488.594 695.199 490.412 695.199 492.878C695.199 495.362 693.525 497.144 691.185 497.144C689.907 497.144 688.953 496.604 688.341 495.74V500.312H686.721V488.72H688.341V490.016C688.953 489.134 689.907 488.594 691.185 488.594ZM690.969 495.614C692.571 495.614 693.615 494.462 693.615 492.878C693.615 491.276 692.571 490.124 690.969 490.124C689.385 490.124 688.341 491.276 688.341 492.878C688.341 494.462 689.385 495.614 690.969 495.614ZM701.556 488.594C703.896 488.594 705.57 490.412 705.57 492.878C705.57 495.362 703.896 497.144 701.556 497.144C700.278 497.144 699.324 496.604 698.712 495.74V500.312H697.092V488.72H698.712V490.016C699.324 489.134 700.278 488.594 701.556 488.594ZM701.34 495.614C702.942 495.614 703.986 494.462 703.986 492.878C703.986 491.276 702.942 490.124 701.34 490.124C699.756 490.124 698.712 491.276 698.712 492.878C698.712 494.462 699.756 495.614 701.34 495.614ZM708.417 487.136C707.949 487.136 707.463 486.758 707.463 486.182C707.463 485.588 707.949 485.264 708.417 485.264C708.885 485.264 709.353 485.588 709.353 486.182C709.353 486.758 708.885 487.136 708.417 487.136ZM709.227 497H707.607V488.72H709.227V497ZM715.682 488.594C717.284 488.594 718.958 489.512 718.958 491.906V497H717.338V492.14C717.338 490.61 716.258 489.98 715.214 489.98C714.188 489.98 713.126 490.61 713.126 492.14V497H711.506V488.72H713.126V489.728C713.756 488.918 714.728 488.594 715.682 488.594ZM727.71 488.72H729.33V496.388C729.33 498.782 727.674 500.456 724.956 500.456C723.498 500.456 722.256 499.88 721.5 498.98L722.562 498.08C723.228 498.8 724.11 499.07 724.956 499.07C726.234 499.07 727.71 498.314 727.71 496.388V495.722C727.098 496.586 726.126 497.144 724.848 497.144C722.526 497.144 720.852 495.326 720.852 492.86C720.852 490.394 722.526 488.594 724.848 488.594C726.126 488.594 727.098 489.134 727.71 490.016V488.72ZM725.064 495.614C726.666 495.614 727.71 494.444 727.71 492.86C727.71 491.258 726.666 490.124 725.064 490.124C723.48 490.124 722.436 491.258 722.436 492.86C722.436 494.444 723.48 495.614 725.064 495.614Z" fill="white"/>
<path d="M576.129 370L580.809 378.49L585.489 370H590.079L582.939 382.54V391H578.679V382.54L571.539 370H576.129ZM591.486 389.005C589.836 387.435 589.011 385.51 589.011 383.23C589.011 380.95 589.836 379.025 591.486 377.455C593.136 375.885 595.186 375.1 597.636 375.1C599.256 375.1 600.726 375.46 602.046 376.18C603.366 376.9 604.396 377.88 605.136 379.12C605.886 380.36 606.261 381.73 606.261 383.23C606.261 384.73 605.886 386.1 605.136 387.34C604.396 388.58 603.366 389.56 602.046 390.28C600.726 391 599.256 391.36 597.636 391.36C595.186 391.36 593.136 390.575 591.486 389.005ZM593.151 383.23C593.151 384.5 593.581 385.565 594.441 386.425C595.301 387.285 596.366 387.715 597.636 387.715C598.906 387.715 599.971 387.285 600.831 386.425C601.701 385.565 602.136 384.5 602.136 383.23C602.136 381.97 601.701 380.91 600.831 380.05C599.971 379.18 598.906 378.745 597.636 378.745C596.366 378.745 595.301 379.18 594.441 380.05C593.581 380.91 593.151 381.97 593.151 383.23ZM619.496 385.57V375.46H623.621V391H619.496V389.29C618.966 389.92 618.311 390.425 617.531 390.805C616.761 391.175 615.961 391.36 615.131 391.36C613.301 391.36 611.806 390.775 610.646 389.605C609.496 388.435 608.921 386.91 608.921 385.03V375.46H613.046V384.625C613.046 385.505 613.326 386.24 613.886 386.83C614.456 387.42 615.206 387.715 616.136 387.715C616.766 387.715 617.391 387.505 618.011 387.085C618.631 386.665 619.126 386.16 619.496 385.57ZM635.374 378.745C634.634 378.745 633.949 378.97 633.319 379.42C632.689 379.87 632.164 380.485 631.744 381.265V391H627.619V375.46H631.744V377.365C632.874 375.855 634.259 375.1 635.899 375.1C636.429 375.1 636.899 375.21 637.309 375.43L637.024 379.045C636.444 378.845 635.894 378.745 635.374 378.745ZM654.51 375.415C653.17 376.785 652.5 378.48 652.5 380.5C652.5 382.52 653.17 384.215 654.51 385.585C655.85 386.955 657.5 387.64 659.46 387.64C661.42 387.64 663.07 386.955 664.41 385.585C665.75 384.215 666.42 382.52 666.42 380.5C666.42 378.48 665.75 376.785 664.41 375.415C663.07 374.045 661.42 373.36 659.46 373.36C657.5 373.36 655.85 374.045 654.51 375.415ZM649.665 386.005C648.685 384.345 648.195 382.51 648.195 380.5C648.195 378.49 648.685 376.655 649.665 374.995C650.655 373.335 652.01 372.03 653.73 371.08C655.46 370.12 657.37 369.64 659.46 369.64C661.55 369.64 663.455 370.12 665.175 371.08C666.905 372.03 668.26 373.335 669.24 374.995C670.23 376.655 670.725 378.49 670.725 380.5C670.725 382.51 670.23 384.345 669.24 386.005C668.26 387.665 666.905 388.975 665.175 389.935C663.455 390.885 661.55 391.36 659.46 391.36C657.37 391.36 655.46 390.885 653.73 389.935C652.01 388.975 650.655 387.665 649.665 386.005ZM681.634 378.745C680.894 378.745 680.209 378.97 679.579 379.42C678.949 379.87 678.424 380.485 678.004 381.265V391H673.879V375.46H678.004V377.365C679.134 375.855 680.519 375.1 682.159 375.1C682.689 375.1 683.159 375.21 683.569 375.43L683.284 379.045C682.704 378.845 682.154 378.745 681.634 378.745ZM693.378 387.715C694.268 387.715 695.073 387.49 695.793 387.04C696.523 386.59 697.068 385.99 697.428 385.24V381.22C697.068 380.47 696.523 379.87 695.793 379.42C695.073 378.97 694.268 378.745 693.378 378.745C692.108 378.745 691.043 379.175 690.183 380.035C689.323 380.895 688.893 381.96 688.893 383.23C688.893 384.5 689.323 385.565 690.183 386.425C691.043 387.285 692.108 387.715 693.378 387.715ZM692.508 375.1C694.478 375.1 696.118 375.74 697.428 377.02V369.1H701.508V391H697.428V389.44C696.118 390.72 694.478 391.36 692.508 391.36C691.048 391.36 689.723 390.995 688.533 390.265C687.343 389.525 686.413 388.535 685.743 387.295C685.083 386.055 684.753 384.7 684.753 383.23C684.753 381.76 685.083 380.405 685.743 379.165C686.413 377.925 687.343 376.94 688.533 376.21C689.723 375.47 691.048 375.1 692.508 375.1ZM708.64 384.46C708.82 385.54 709.32 386.415 710.14 387.085C710.97 387.745 711.97 388.075 713.14 388.075C714.77 388.075 716.24 387.43 717.55 386.14L720.025 388.54C718.295 390.42 716.005 391.36 713.155 391.36C711.895 391.36 710.72 391.15 709.63 390.73C708.54 390.31 707.62 389.735 706.87 389.005C706.12 388.275 705.53 387.415 705.1 386.425C704.68 385.425 704.47 384.36 704.47 383.23C704.47 382.11 704.685 381.05 705.115 380.05C705.545 379.05 706.13 378.19 706.87 377.47C707.62 376.74 708.52 376.165 709.57 375.745C710.62 375.315 711.735 375.1 712.915 375.1C714.465 375.1 715.865 375.455 717.115 376.165C718.365 376.865 719.335 377.815 720.025 379.015C720.715 380.205 721.06 381.52 721.06 382.96C721.06 383.48 721 383.98 720.88 384.46H708.64ZM712.885 378.385C711.915 378.385 711.05 378.67 710.29 379.24C709.54 379.81 709.025 380.57 708.745 381.52H716.815C716.585 380.58 716.12 379.825 715.42 379.255C714.72 378.675 713.875 378.385 712.885 378.385ZM731.79 378.745C731.05 378.745 730.365 378.97 729.735 379.42C729.105 379.87 728.58 380.485 728.16 381.265V391H724.035V375.46H728.16V377.365C729.29 375.855 730.675 375.1 732.315 375.1C732.845 375.1 733.315 375.21 733.725 375.43L733.44 379.045C732.86 378.845 732.31 378.745 731.79 378.745ZM745.526 391V375.46H749.651V391H745.526ZM745.856 373.015C745.386 372.555 745.151 371.99 745.151 371.32C745.151 370.65 745.386 370.085 745.856 369.625C746.326 369.165 746.906 368.935 747.596 368.935C748.286 368.935 748.866 369.165 749.336 369.625C749.806 370.085 750.041 370.65 750.041 371.32C750.041 371.99 749.806 372.555 749.336 373.015C748.866 373.475 748.286 373.705 747.596 373.705C746.906 373.705 746.326 373.475 745.856 373.015ZM752.677 388.78L754.747 386.215C755.247 386.785 755.837 387.235 756.517 387.565C757.207 387.895 757.932 388.06 758.692 388.06C759.402 388.06 759.957 387.92 760.357 387.64C760.767 387.36 760.972 386.985 760.972 386.515C760.972 386.035 760.772 385.65 760.372 385.36C759.972 385.06 759.282 384.81 758.302 384.61C754.932 383.92 753.247 382.26 753.247 379.63C753.247 378.31 753.762 377.225 754.792 376.375C755.832 375.525 757.187 375.1 758.857 375.1C759.897 375.1 760.897 375.295 761.857 375.685C762.817 376.065 763.657 376.575 764.377 377.215L762.397 379.795C761.267 378.865 760.207 378.4 759.217 378.4C758.647 378.4 758.182 378.52 757.822 378.76C757.462 378.99 757.282 379.3 757.282 379.69C757.282 380.59 758.107 381.21 759.757 381.55C761.547 381.91 762.867 382.505 763.717 383.335C764.577 384.165 765.007 385.24 765.007 386.56C765.007 387.96 764.462 389.11 763.372 390.01C762.282 390.91 760.827 391.36 759.007 391.36C757.717 391.36 756.517 391.135 755.407 390.685C754.297 390.225 753.387 389.59 752.677 388.78ZM602.815 424.36C600.725 424.36 598.815 423.885 597.085 422.935C595.365 421.975 594.01 420.665 593.02 419.005C592.04 417.345 591.55 415.51 591.55 413.5C591.55 411.49 592.04 409.655 593.02 407.995C594.01 406.335 595.365 405.03 597.085 404.08C598.815 403.12 600.725 402.64 602.815 402.64C605.525 402.64 607.925 403.45 610.015 405.07L607.87 408.235C607.03 407.635 606.21 407.175 605.41 406.855C604.62 406.525 603.755 406.36 602.815 406.36C600.855 406.36 599.205 407.045 597.865 408.415C596.525 409.785 595.855 411.48 595.855 413.5C595.855 415.52 596.525 417.215 597.865 418.585C599.205 419.955 600.855 420.64 602.815 420.64C603.755 420.64 604.675 420.455 605.575 420.085C606.475 419.715 607.29 419.225 608.02 418.615L610.27 421.75C608.17 423.49 605.685 424.36 602.815 424.36ZM614.118 422.005C612.468 420.435 611.643 418.51 611.643 416.23C611.643 413.95 612.468 412.025 614.118 410.455C615.768 408.885 617.818 408.1 620.268 408.1C621.888 408.1 623.358 408.46 624.678 409.18C625.998 409.9 627.028 410.88 627.768 412.12C628.518 413.36 628.893 414.73 628.893 416.23C628.893 417.73 628.518 419.1 627.768 420.34C627.028 421.58 625.998 422.56 624.678 423.28C623.358 424 621.888 424.36 620.268 424.36C617.818 424.36 615.768 423.575 614.118 422.005ZM615.783 416.23C615.783 417.5 616.213 418.565 617.073 419.425C617.933 420.285 618.998 420.715 620.268 420.715C621.538 420.715 622.603 420.285 623.463 419.425C624.333 418.565 624.768 417.5 624.768 416.23C624.768 414.97 624.333 413.91 623.463 413.05C622.603 412.18 621.538 411.745 620.268 411.745C618.998 411.745 617.933 412.18 617.073 413.05C616.213 413.91 615.783 414.97 615.783 416.23ZM635.977 413.89V424H631.852V408.46H635.977V410.17C636.507 409.54 637.157 409.04 637.927 408.67C638.707 408.29 639.512 408.1 640.342 408.1C642.172 408.1 643.662 408.685 644.812 409.855C645.972 411.025 646.552 412.55 646.552 414.43V424H642.427V414.835C642.427 413.955 642.142 413.22 641.572 412.63C641.012 412.04 640.267 411.745 639.337 411.745C638.707 411.745 638.082 411.955 637.462 412.375C636.842 412.795 636.347 413.3 635.977 413.89ZM650.933 408.46V407.575C650.933 403.925 652.978 402.1 657.068 402.1C657.678 402.1 658.313 402.15 658.973 402.25V405.535C658.473 405.485 657.973 405.46 657.473 405.46C656.613 405.46 655.993 405.635 655.613 405.985C655.243 406.335 655.058 406.88 655.058 407.62V408.46H665.648V424H661.523V412.045H655.058V424H650.933V412.045H648.608V408.46H650.933ZM661.853 406.015C661.383 405.555 661.148 404.99 661.148 404.32C661.148 403.65 661.383 403.085 661.853 402.625C662.323 402.165 662.903 401.935 663.593 401.935C664.283 401.935 664.863 402.165 665.333 402.625C665.803 403.085 666.038 403.65 666.038 404.32C666.038 404.99 665.803 405.555 665.333 406.015C664.863 406.475 664.283 406.705 663.593 406.705C662.903 406.705 662.323 406.475 661.853 406.015ZM677.488 411.745C676.748 411.745 676.063 411.97 675.433 412.42C674.803 412.87 674.278 413.485 673.858 414.265V424H669.733V408.46H673.858V410.365C674.988 408.855 676.373 408.1 678.013 408.1C678.543 408.1 679.013 408.21 679.423 408.43L679.138 412.045C678.558 411.845 678.008 411.745 677.488 411.745ZM682.097 408.46H686.222V410.17C686.722 409.55 687.337 409.055 688.067 408.685C688.797 408.315 689.577 408.13 690.407 408.13C691.497 408.13 692.477 408.365 693.347 408.835C694.227 409.305 694.932 409.96 695.462 410.8C696.022 409.99 696.762 409.34 697.682 408.85C698.602 408.35 699.572 408.1 700.592 408.1C702.382 408.1 703.837 408.69 704.957 409.87C706.087 411.04 706.652 412.545 706.652 414.385V424H702.527V414.805C702.527 413.935 702.267 413.21 701.747 412.63C701.237 412.04 700.557 411.745 699.707 411.745C699.077 411.745 698.472 411.955 697.892 412.375C697.312 412.785 696.817 413.32 696.407 413.98C696.427 414.42 696.437 414.76 696.437 415V424H692.312V414.805C692.312 413.915 692.052 413.185 691.532 412.615C691.012 412.035 690.332 411.745 689.492 411.745C688.862 411.745 688.257 411.95 687.677 412.36C687.107 412.77 686.622 413.295 686.222 413.935V424H682.097V408.46ZM713.489 417.46C713.669 418.54 714.169 419.415 714.989 420.085C715.819 420.745 716.819 421.075 717.989 421.075C719.619 421.075 721.089 420.43 722.399 419.14L724.874 421.54C723.144 423.42 720.854 424.36 718.004 424.36C716.744 424.36 715.569 424.15 714.479 423.73C713.389 423.31 712.469 422.735 711.719 422.005C710.969 421.275 710.379 420.415 709.949 419.425C709.529 418.425 709.319 417.36 709.319 416.23C709.319 415.11 709.534 414.05 709.964 413.05C710.394 412.05 710.979 411.19 711.719 410.47C712.469 409.74 713.369 409.165 714.419 408.745C715.469 408.315 716.584 408.1 717.764 408.1C719.314 408.1 720.714 408.455 721.964 409.165C723.214 409.865 724.184 410.815 724.874 412.015C725.564 413.205 725.909 414.52 725.909 415.96C725.909 416.48 725.849 416.98 725.729 417.46H713.489ZM717.734 411.385C716.764 411.385 715.899 411.67 715.139 412.24C714.389 412.81 713.874 413.57 713.594 414.52H721.664C721.434 413.58 720.969 412.825 720.269 412.255C719.569 411.675 718.724 411.385 717.734 411.385ZM736.489 420.715C737.379 420.715 738.184 420.49 738.904 420.04C739.634 419.59 740.179 418.99 740.539 418.24V414.22C740.179 413.47 739.634 412.87 738.904 412.42C738.184 411.97 737.379 411.745 736.489 411.745C735.219 411.745 734.154 412.175 733.294 413.035C732.434 413.895 732.004 414.96 732.004 416.23C732.004 417.5 732.434 418.565 733.294 419.425C734.154 420.285 735.219 420.715 736.489 420.715ZM735.619 408.1C737.589 408.1 739.229 408.74 740.539 410.02V402.1H744.619V424H740.539V422.44C739.229 423.72 737.589 424.36 735.619 424.36C734.159 424.36 732.834 423.995 731.644 423.265C730.454 422.525 729.524 421.535 728.854 420.295C728.194 419.055 727.864 417.7 727.864 416.23C727.864 414.76 728.194 413.405 728.854 412.165C729.524 410.925 730.454 409.94 731.644 409.21C732.834 408.47 734.159 408.1 735.619 408.1Z" fill="#3C4242"/>
</svg>
