<svg xmlns="http://www.w3.org/2000/svg" width="152" height="132" viewBox="0 0 152 132" fill="none">
  <path d="M118.164 131.553L118.733 114.762L106.145 112.856L105.378 131.741" fill="white"/>
  <path d="M105.378 132C105.311 131.997 105.248 131.969 105.203 131.92C105.157 131.872 105.132 131.807 105.134 131.741L105.901 112.851C105.902 112.815 105.91 112.779 105.926 112.747C105.942 112.714 105.965 112.686 105.993 112.663C106.02 112.64 106.052 112.624 106.086 112.615C106.12 112.606 106.156 112.605 106.191 112.612L118.784 114.518C118.845 114.528 118.901 114.56 118.94 114.607C118.979 114.655 119 114.715 118.998 114.777L118.428 131.548C118.427 131.581 118.419 131.614 118.405 131.644C118.391 131.675 118.371 131.702 118.347 131.725C118.322 131.747 118.294 131.765 118.262 131.776C118.231 131.788 118.198 131.793 118.164 131.792C118.131 131.79 118.098 131.783 118.068 131.769C118.037 131.755 118.01 131.735 117.987 131.71C117.965 131.686 117.947 131.657 117.936 131.626C117.924 131.594 117.919 131.561 117.92 131.527L118.474 114.991L106.384 113.161L105.632 131.761C105.628 131.826 105.6 131.887 105.552 131.931C105.505 131.976 105.443 132 105.378 132Z" fill="#1E293B"/>
  <path d="M56.7324 124.301L71.1349 107.225L84.0127 110.376L67.6029 127.162" fill="white"/>
  <path d="M67.6029 127.421C67.5359 127.42 67.4719 127.393 67.425 127.345C67.4014 127.322 67.3826 127.294 67.3697 127.264C67.3569 127.233 67.3503 127.2 67.3503 127.167C67.3503 127.134 67.3569 127.101 67.3697 127.071C67.3826 127.04 67.4014 127.012 67.425 126.989L83.5198 110.518L71.2264 107.51L56.9256 124.468C56.8806 124.519 56.8182 124.55 56.7512 124.555C56.6841 124.561 56.6175 124.541 56.5647 124.499C56.5136 124.455 56.4817 124.392 56.476 124.325C56.4703 124.257 56.4912 124.19 56.5342 124.138L70.9672 107.063C70.9975 107.026 71.0374 106.999 71.0824 106.985C71.1274 106.971 71.1756 106.969 71.2213 106.981L84.0991 110.127C84.142 110.139 84.1811 110.162 84.213 110.193C84.2449 110.224 84.2687 110.262 84.2821 110.305C84.2939 110.348 84.2945 110.394 84.2838 110.437C84.2732 110.481 84.2516 110.521 84.2211 110.554L67.8112 127.325C67.786 127.355 67.7542 127.38 67.7181 127.397C67.682 127.413 67.6426 127.422 67.6029 127.421Z" fill="#1E293B"/>
  <path d="M112.548 38.3384C112.548 38.3384 92.9725 43.705 93.1605 44.4673C93.3486 45.2296 97.1702 59.3475 97.1702 59.3475L109.367 56.2983L112.548 38.3384Z" fill="#3B82F6"/>
  <path d="M112.945 38.2213C112.945 38.2213 106.73 39.8882 102.918 42.0837C99.1067 44.2791 100.154 67.6768 100.154 67.6768L128.394 73.3686C128.394 73.3686 133.771 58.1734 133.405 51.2364C133.039 44.2994 128.75 34.4606 112.945 38.2213Z" fill="#3B82F6"/>
  <path d="M98.8829 56.273C98.8511 56.2802 98.8181 56.2802 98.7864 56.273C98.7229 56.246 98.6725 56.1953 98.6459 56.1317C98.6193 56.0681 98.6187 55.9966 98.6441 55.9325C100.489 51.3942 103.269 44.4725 103.345 43.9897C103.346 43.9559 103.353 43.9225 103.367 43.8916C103.38 43.8607 103.4 43.8328 103.425 43.8096C103.449 43.7865 103.478 43.7684 103.51 43.7566C103.542 43.7447 103.575 43.7393 103.609 43.7407C103.679 43.7433 103.745 43.7728 103.793 43.8231C103.841 43.8733 103.868 43.9403 103.868 44.01C103.868 44.4471 100.555 52.6495 99.1268 56.1307C99.1043 56.1754 99.0693 56.2127 99.026 56.2379C98.9827 56.2632 98.933 56.2754 98.8829 56.273Z" fill="#1E293B"/>
  <path d="M114.673 35.3702L112.68 41.3568C112.68 41.3568 112.63 44.9142 116.578 44.6042C117.745 44.4999 118.873 44.1376 119.882 43.5434C120.891 42.9492 121.756 42.1381 122.412 41.1687L124.079 30.4355C123.475 29.9085 123.091 29.1741 123.002 28.3773C122.915 27.7809 122.932 27.1738 123.053 26.5833C123.238 25.7904 123.534 25.0275 123.932 24.3168C122.054 24.0237 120.332 23.1008 119.048 21.6995C118.743 21.3271 118.458 20.9386 118.194 20.5357C118.072 20.3477 115.567 21.5216 115.303 21.6538C114.012 22.2228 112.911 23.1506 112.132 24.3269C111.615 25.3434 111.287 26.4456 111.166 27.5794C110.87 29.1375 110.72 30.7198 110.719 32.3057C110.749 35.3295 114.673 35.3702 114.673 35.3702Z" fill="white"/>
  <path d="M116.086 44.8583C115.155 44.9029 114.244 44.584 113.545 43.969C112.859 43.2709 112.469 42.3351 112.457 41.3568C112.455 41.3332 112.455 41.3093 112.457 41.2857L114.353 35.5887C113.387 35.4972 110.516 35.0043 110.49 32.321C110.492 30.7231 110.644 29.1289 110.943 27.5591C111.074 26.3917 111.418 25.2582 111.959 24.2151C112.744 23.0011 113.863 22.0393 115.181 21.4454C118.103 20.0021 118.296 20.2969 118.367 20.429C118.367 20.429 118.876 21.2218 119.201 21.5674C120.448 22.9348 122.128 23.8319 123.958 24.1084C123.993 24.1151 124.027 24.1302 124.055 24.1524C124.084 24.1745 124.107 24.2032 124.122 24.2359C124.137 24.2686 124.145 24.3045 124.144 24.3407C124.142 24.3768 124.133 24.4122 124.115 24.4438C123.727 25.1354 123.438 25.8778 123.256 26.6494C123.145 27.2154 123.129 27.7961 123.211 28.3672C123.288 29.1039 123.64 29.7844 124.196 30.2729C124.231 30.2967 124.258 30.33 124.274 30.3687C124.291 30.4075 124.295 30.4501 124.288 30.4914L122.621 41.2247C122.616 41.2551 122.606 41.2844 122.591 41.3111C121.92 42.3185 121.03 43.1615 119.989 43.7775C118.947 44.3934 117.779 44.7663 116.573 44.8685C116.416 44.8583 116.248 44.8583 116.086 44.8583ZM112.904 41.3975C112.928 42.2339 113.263 43.0313 113.844 43.6336C114.216 43.9424 114.65 44.1683 115.116 44.2962C115.582 44.4242 116.071 44.4512 116.548 44.3755C117.669 44.2718 118.754 43.9241 119.727 43.357C120.699 42.7899 121.536 42.0171 122.179 41.0925L123.82 30.5321C123.232 29.9704 122.858 29.2209 122.763 28.4129C122.671 27.7985 122.684 27.1728 122.804 26.563C122.967 25.8548 123.224 25.1713 123.566 24.5302C121.751 24.1914 120.096 23.2709 118.85 21.9079C118.586 21.6081 118.195 21.0287 118.042 20.8051C117.133 21.116 116.245 21.4861 115.384 21.913C114.145 22.4699 113.089 23.3646 112.335 24.4947C111.829 25.4912 111.505 26.5704 111.38 27.6811C111.088 29.2243 110.938 30.7911 110.932 32.3616C110.963 35.1161 114.49 35.1872 114.652 35.1923C114.688 35.1925 114.724 35.2014 114.756 35.2182C114.788 35.235 114.815 35.2592 114.835 35.2889C114.857 35.3184 114.872 35.3526 114.878 35.3888C114.884 35.425 114.882 35.4622 114.871 35.4972L112.904 41.3975Z" fill="#1E293B"/>
  <path d="M121.976 29.4751C122.168 29.0484 122.49 28.6929 122.895 28.4587C123.288 28.2549 123.713 28.1208 124.151 28.0623C124.386 28.0066 124.632 28.0066 124.867 28.0623C125.03 28.1149 125.18 28.1996 125.309 28.3114C125.639 28.5414 125.876 28.8822 125.975 29.2719C126.017 29.5943 125.98 29.9219 125.868 30.2273C125.773 30.5662 125.633 30.8909 125.452 31.1929C125.265 31.4904 125.02 31.7479 124.733 31.9501C124.445 32.1524 124.12 32.2956 123.777 32.3712C123.434 32.4469 123.079 32.4535 122.733 32.3909C122.387 32.3282 122.057 32.1973 121.762 32.006" fill="white"/>
  <path d="M123.21 32.5958C122.657 32.5963 122.116 32.4375 121.65 32.1384C121.605 32.1093 121.574 32.0635 121.562 32.0112C121.551 31.9589 121.561 31.9041 121.589 31.8589C121.603 31.8361 121.622 31.8164 121.643 31.8009C121.665 31.7854 121.69 31.7745 121.716 31.7688C121.742 31.7631 121.769 31.7628 121.795 31.7678C121.822 31.7728 121.847 31.783 121.869 31.7979C122.142 31.9741 122.448 32.0945 122.768 32.152C123.088 32.2096 123.416 32.2032 123.734 32.1333C124.364 31.983 124.911 31.5929 125.259 31.0458C125.431 30.7583 125.565 30.4489 125.655 30.1259C125.754 29.8528 125.788 29.5608 125.757 29.2722C125.664 28.9311 125.455 28.6329 125.167 28.4285C125.055 28.3357 124.928 28.2635 124.791 28.2151C124.585 28.1699 124.372 28.1699 124.166 28.2151C123.751 28.2726 123.349 28.3998 122.977 28.5912C122.605 28.8067 122.313 29.1364 122.143 29.5313C122.133 29.556 122.118 29.5784 122.1 29.5972C122.081 29.616 122.058 29.6308 122.034 29.6407C122.009 29.6507 121.983 29.6556 121.956 29.6551C121.929 29.6547 121.903 29.6489 121.879 29.6381C121.854 29.6287 121.831 29.6142 121.812 29.5955C121.793 29.5768 121.777 29.5543 121.767 29.5294C121.757 29.5046 121.753 29.4779 121.753 29.4511C121.754 29.4243 121.761 29.398 121.772 29.3738C121.978 28.8951 122.335 28.497 122.789 28.2405C123.201 28.027 123.646 27.8844 124.105 27.8187C124.372 27.7577 124.65 27.7577 124.918 27.8187C125.102 27.8818 125.274 27.9764 125.426 28.0982C125.794 28.3607 126.056 28.7466 126.163 29.1858C126.212 29.5386 126.174 29.8982 126.051 30.2327C125.951 30.5894 125.804 30.9312 125.614 31.2491C125.412 31.5693 125.149 31.8465 124.839 32.0645C124.529 32.2826 124.18 32.4372 123.81 32.5196C123.614 32.5668 123.413 32.5924 123.21 32.5958Z" fill="#1E293B"/>
  <path d="M113.656 38.5312C115.106 38.6775 116.562 38.3185 117.778 37.5148C119.709 36.1681 119.811 34.4656 119.811 34.4656C118.193 35.166 116.433 35.4759 114.673 35.3702L113.656 38.5312Z" fill="#1E293B"/>
  <path d="M114.235 38.7855C114.028 38.7879 113.821 38.776 113.615 38.7499C113.583 38.7455 113.552 38.7341 113.525 38.7165C113.497 38.6988 113.474 38.6753 113.456 38.6477C113.439 38.6201 113.428 38.589 113.424 38.5566C113.42 38.5243 113.423 38.4913 113.432 38.4602L114.449 35.3043C114.465 35.2579 114.495 35.2177 114.535 35.1894C114.575 35.1611 114.623 35.1462 114.673 35.1468C116.394 35.2307 118.111 34.9141 119.688 34.2218C119.723 34.2031 119.761 34.1934 119.8 34.1934C119.839 34.1934 119.878 34.2031 119.912 34.2218C119.945 34.2435 119.971 34.273 119.989 34.3077C120.006 34.3424 120.015 34.3811 120.014 34.42C120.014 34.4963 119.892 36.2699 117.895 37.6674C116.816 38.4011 115.54 38.7909 114.235 38.7855ZM113.946 38.3281C115.253 38.394 116.546 38.0376 117.635 37.3117C118.537 36.7257 119.197 35.8344 119.495 34.8012C118.008 35.3807 116.42 35.6554 114.825 35.6092L113.946 38.3281Z" fill="#1E293B"/>
  <path d="M117.32 25.0996C117.32 25.0996 114.779 27.6406 115.135 28.2708C115.491 28.901 116.889 28.779 116.889 28.779" fill="white"/>
  <path d="M116.706 29.0231C116.268 29.0231 115.293 28.957 114.947 28.3879C114.53 27.7069 116.36 25.7503 117.168 24.9422C117.189 24.9209 117.214 24.9039 117.241 24.8923C117.269 24.8807 117.298 24.8748 117.328 24.8748C117.358 24.8748 117.387 24.8807 117.415 24.8923C117.442 24.9039 117.467 24.9209 117.488 24.9422C117.53 24.985 117.554 25.0425 117.554 25.1023C117.554 25.1622 117.53 25.2197 117.488 25.2624C116.197 26.5634 115.181 27.8898 115.328 28.1541C115.567 28.5556 116.548 28.5861 116.853 28.5708C116.912 28.5693 116.97 28.5905 117.015 28.6302C117.059 28.6699 117.087 28.725 117.092 28.7843C117.093 28.8136 117.089 28.843 117.079 28.8706C117.069 28.8983 117.053 28.9237 117.034 28.9454C117.014 28.9671 116.99 28.9847 116.963 28.9972C116.936 29.0096 116.908 29.0167 116.878 29.018L116.706 29.0231Z" fill="#1E293B"/>
  <path d="M113.423 30.268L118.367 30.2019C118.367 30.2019 118.144 33.556 115.267 33.7593C112.391 33.9626 113.423 30.268 113.423 30.268Z" fill="#1E293B"/>
  <path d="M118.489 25.1047C118.554 24.9649 118.654 24.8445 118.78 24.7553C118.906 24.6662 119.052 24.6115 119.206 24.5965C119.775 24.505 120.065 25.1708 120.065 25.1708" fill="white"/>
  <path d="M120.065 25.3741C120.021 25.375 119.978 25.3629 119.941 25.3394C119.904 25.3159 119.875 25.282 119.857 25.242C119.857 25.242 119.633 24.7338 119.242 24.7998C119.127 24.8111 119.017 24.8516 118.923 24.9174C118.829 24.9833 118.753 25.0723 118.703 25.1759C118.682 25.2322 118.64 25.2781 118.586 25.3038C118.532 25.3294 118.47 25.3328 118.413 25.3131C118.359 25.2935 118.314 25.2534 118.288 25.2012C118.262 25.149 118.258 25.0889 118.276 25.0336C118.35 24.8514 118.471 24.6924 118.628 24.5734C118.784 24.4545 118.97 24.3799 119.165 24.3577C119.897 24.2357 120.253 25.0285 120.268 25.0641C120.28 25.0911 120.286 25.1202 120.287 25.1497C120.287 25.1791 120.282 25.2084 120.271 25.2358C120.26 25.2632 120.244 25.2882 120.223 25.3093C120.203 25.3304 120.178 25.3473 120.151 25.3589L120.065 25.3741Z" fill="#1E293B"/>
  <path d="M113.91 24.6725C113.975 24.5327 114.075 24.4123 114.201 24.3231C114.327 24.234 114.473 24.1792 114.627 24.1643C115.196 24.0677 115.486 24.7386 115.486 24.7386" fill="white"/>
  <path d="M115.486 24.947C115.442 24.9474 115.398 24.9346 115.361 24.9102C115.324 24.8857 115.295 24.8508 115.278 24.8098C115.278 24.8098 115.054 24.3016 114.663 24.3727C114.548 24.383 114.438 24.4231 114.343 24.4891C114.249 24.555 114.173 24.6446 114.124 24.7488C114.103 24.8051 114.061 24.851 114.007 24.8767C113.953 24.9023 113.891 24.9057 113.834 24.886C113.779 24.8653 113.734 24.8242 113.709 24.7712C113.683 24.7182 113.679 24.6574 113.697 24.6014C113.772 24.4198 113.894 24.2614 114.05 24.1425C114.206 24.0237 114.392 23.9488 114.587 23.9255C115.318 23.8035 115.674 24.6014 115.689 24.6319C115.702 24.6588 115.709 24.688 115.71 24.7177C115.71 24.7473 115.705 24.7768 115.694 24.8044C115.683 24.832 115.667 24.8571 115.646 24.8781C115.625 24.8991 115.6 24.9156 115.572 24.9267C115.546 24.9401 115.516 24.947 115.486 24.947Z" fill="#1E293B"/>
  <path d="M127.83 73.0078L123.785 126.984L56.5396 113.237L101.241 67.377L127.83 73.0078Z" fill="#1E293B"/>
  <path d="M98.8829 33.4136L19.9082 46.576L54.6489 11.2661L98.8829 33.4136Z" fill="#1E293B"/>
  <path d="M19.9084 46.8307C19.8583 46.831 19.8091 46.8164 19.7672 46.7888C19.7253 46.7612 19.6925 46.7219 19.6729 46.6757C19.6534 46.6295 19.6479 46.5785 19.6573 46.5292C19.6666 46.4799 19.6904 46.4345 19.7255 46.3987L54.4662 11.0837C54.5042 11.046 54.5532 11.0212 54.6062 11.013C54.6591 11.0048 54.7133 11.0135 54.761 11.0379L98.9746 33.1905C99.024 33.2125 99.0645 33.2506 99.0894 33.2986C99.1143 33.3466 99.1222 33.4017 99.1118 33.4548C99.1069 33.5075 99.0857 33.5574 99.0511 33.5975C99.0165 33.6376 98.9702 33.6659 98.9187 33.6784L19.9491 46.8256L19.9084 46.8307ZM54.7051 11.5766L20.6555 46.1954L98.07 33.2921L54.7051 11.5766Z" fill="#1E293B"/>
  <path d="M106.175 86.3939L31.6781 99.7952L20.0098 47.0438L98.9438 33.8813L106.175 86.3939Z" fill="#1E293B"/>
  <path d="M31.6829 100.049C31.6248 100.051 31.5681 100.031 31.5226 99.9953C31.4771 99.9591 31.4458 99.9081 31.4339 99.8512L19.7452 47.0947C19.7313 47.0282 19.7441 46.9588 19.7808 46.9016C19.8 46.8717 19.8253 46.8463 19.8551 46.827C19.8849 46.8077 19.9185 46.795 19.9536 46.7898L98.9181 33.6273C98.986 33.6169 99.0553 33.6333 99.1112 33.6731C99.139 33.6935 99.1624 33.7193 99.1798 33.749C99.1973 33.7787 99.2085 33.8117 99.2129 33.8459L106.445 86.3584C106.45 86.3908 106.448 86.4239 106.441 86.4557C106.433 86.4875 106.419 86.5175 106.399 86.544C106.38 86.5704 106.356 86.5928 106.328 86.6098C106.3 86.6268 106.269 86.6381 106.236 86.643L31.7236 100.044L31.6829 100.049ZM20.3144 47.2472L31.876 99.5056L105.891 86.1856L98.7301 34.1864L20.3144 47.2472Z" fill="#1E293B"/>
  <path d="M37.9341 82.3385C37.9341 82.3385 24.2126 39.9849 17.606 27.1071L91.1581 7.07373L95.7319 72.6319L37.9341 82.3385Z" fill="#3B82F6"/>
  <path d="M30.4892 34.5164C30.4327 34.5167 30.3777 34.4977 30.3334 34.4626C30.2891 34.4275 30.258 34.3784 30.2453 34.3233C30.2282 34.2586 30.2372 34.1897 30.2705 34.1317C30.3038 34.0737 30.3587 34.0311 30.4232 34.0133L84.5112 19.992C84.5786 19.9751 84.6499 19.9857 84.7094 20.0215C84.769 20.0572 84.8119 20.1151 84.8288 20.1825C84.8456 20.2499 84.835 20.3212 84.7993 20.3808C84.7635 20.4404 84.7056 20.4833 84.6382 20.5002L30.5502 34.5062L30.4892 34.5164Z" fill="white"/>
  <path d="M32.7757 43.3846C32.7182 43.3856 32.6622 43.3663 32.6175 43.33C32.5729 43.2937 32.5425 43.2429 32.5317 43.1864C32.5243 43.154 32.5234 43.1204 32.5291 43.0877C32.5348 43.0549 32.5471 43.0237 32.5651 42.9957C32.5831 42.9678 32.6065 42.9437 32.6339 42.925C32.6613 42.9062 32.6923 42.8932 32.7248 42.8865L85.0951 31.1369C85.1625 31.1227 85.2328 31.1359 85.2904 31.1736C85.3481 31.2112 85.3884 31.2702 85.4026 31.3376C85.4167 31.405 85.4035 31.4753 85.3659 31.5329C85.3282 31.5906 85.2692 31.6309 85.2018 31.6451L32.8519 43.3795L32.7757 43.3846Z" fill="white"/>
  <path d="M37.2629 51.6837C37.2041 51.6847 37.1468 51.6648 37.1012 51.6276C37.0557 51.5904 37.0247 51.5382 37.0139 51.4804C37.0073 51.4477 37.0071 51.414 37.0134 51.3812C37.0198 51.3485 37.0325 51.3173 37.0509 51.2894C37.0693 51.2616 37.093 51.2376 37.1207 51.2189C37.1484 51.2003 37.1794 51.1872 37.2121 51.1806L87.2955 41.4536C87.3279 41.4469 87.3613 41.4468 87.3937 41.4532C87.4261 41.4596 87.457 41.4724 87.4844 41.4909C87.5119 41.5093 87.5354 41.533 87.5535 41.5607C87.5717 41.5883 87.5842 41.6193 87.5903 41.6518C87.5977 41.6845 87.5983 41.7184 87.5923 41.7514C87.5863 41.7845 87.5736 41.8159 87.5551 41.8439C87.5366 41.8719 87.5126 41.8959 87.4846 41.9144C87.4566 41.9329 87.4251 41.9456 87.3921 41.9516L37.3087 51.6786L37.2629 51.6837Z" fill="white"/>
  <path d="M39.6468 62.2746C39.5794 62.28 39.5127 62.2584 39.4612 62.2146C39.4097 62.1708 39.3778 62.1083 39.3724 62.0409C39.367 61.9735 39.3886 61.9067 39.4324 61.8552C39.4763 61.8038 39.5388 61.7718 39.6062 61.7664L87.1129 54.0367C87.1803 54.0259 87.2493 54.0423 87.3045 54.0824C87.3598 54.1224 87.3969 54.1827 87.4077 54.2501C87.4185 54.3175 87.4021 54.3864 87.362 54.4417C87.322 54.497 87.2616 54.5341 87.1943 54.5449L39.6875 62.2696L39.6468 62.2746Z" fill="white"/>
  <path d="M64.6909 67.4481L20.0098 47.0438L31.6781 99.7952L106.175 86.3939L98.9438 33.8813L64.6909 67.4481Z" fill="white"/>
  <path d="M31.6828 100.049C31.6247 100.05 31.568 100.031 31.5225 99.9951C31.477 99.9589 31.4457 99.9079 31.4338 99.851L19.7451 47.0945C19.735 47.0482 19.738 47 19.7538 46.9553C19.7696 46.9106 19.7976 46.8713 19.8346 46.8417C19.8716 46.8121 19.9162 46.7934 19.9632 46.7878C20.0103 46.7822 20.058 46.7898 20.1009 46.8099L64.6245 67.138L98.7656 33.6779C98.7991 33.6443 98.8415 33.6207 98.8878 33.6099C98.9341 33.5991 98.9825 33.6015 99.0275 33.6169C99.0725 33.6322 99.1123 33.6599 99.1424 33.6968C99.1724 33.7336 99.1915 33.7781 99.1975 33.8253L106.429 86.3379C106.434 86.3702 106.433 86.4033 106.425 86.4351C106.417 86.467 106.404 86.497 106.384 86.5234C106.365 86.5499 106.34 86.5722 106.312 86.5892C106.284 86.6062 106.253 86.6175 106.221 86.6225L31.7235 100.044L31.6828 100.049ZM20.3651 47.4858L31.8759 99.5054L105.891 86.1854L98.7757 34.4148L64.8685 67.6309C64.8312 67.6665 64.7841 67.6899 64.7333 67.6981C64.6824 67.7062 64.6303 67.6988 64.5839 67.6767L20.3651 47.4858Z" fill="#1E293B"/>
  <path d="M106.181 86.3938L31.6831 99.7951L64.6959 67.448L106.181 86.3938Z" fill="white"/>
  <path d="M31.6833 100.05C31.6362 100.05 31.5899 100.038 31.5495 100.013C31.5092 99.9891 31.4763 99.9542 31.4546 99.9123C31.43 99.8643 31.4217 99.8096 31.4309 99.7565C31.44 99.7033 31.4662 99.6546 31.5055 99.6176L64.5386 67.2654C64.5759 67.2299 64.623 67.2065 64.6738 67.1983C64.7246 67.1901 64.7767 67.1976 64.8232 67.2197L106.303 86.1604C106.352 86.1835 106.393 86.2214 106.419 86.2688C106.445 86.3162 106.456 86.3707 106.45 86.4246C106.444 86.4779 106.42 86.5277 106.384 86.5669C106.347 86.6062 106.299 86.6329 106.247 86.6432L31.7291 100.05H31.6833ZM64.747 67.7533L32.4507 99.3991L105.332 86.2874L64.747 67.7533Z" fill="#1E293B"/>
  <path d="M106.181 86.3938L31.6831 99.7951L64.6959 67.448L106.181 86.3938Z" fill="white"/>
  <path d="M31.6833 100.05C31.6362 100.05 31.5899 100.038 31.5495 100.013C31.5092 99.9891 31.4763 99.9542 31.4546 99.9123C31.43 99.8643 31.4217 99.8096 31.4309 99.7565C31.44 99.7033 31.4662 99.6546 31.5055 99.6176L64.5386 67.2654C64.5759 67.2299 64.623 67.2065 64.6738 67.1983C64.7246 67.1901 64.7767 67.1976 64.8232 67.2197L106.303 86.1604C106.352 86.1835 106.393 86.2214 106.419 86.2688C106.445 86.3162 106.456 86.3707 106.45 86.4246C106.444 86.4779 106.42 86.5277 106.384 86.5669C106.347 86.6062 106.299 86.6329 106.247 86.6432L31.7291 100.05H31.6833ZM64.747 67.7533L32.4507 99.3991L105.332 86.2874L64.747 67.7533Z" fill="#1E293B"/>
  <path d="M100.997 13.7056C100.997 13.7056 99.9143 17.7712 96.4941 17.8728C96.4941 17.8728 100.102 18.8892 100.86 22.2739C101.196 21.3348 101.751 20.4895 102.479 19.808C103.208 19.1266 104.088 18.6287 105.047 18.3556C104.065 17.9362 103.191 17.3001 102.489 16.4948C101.788 15.6895 101.277 14.736 100.997 13.7056Z" fill="#E2E8F0"/>
  <path d="M2.78174 44.5992C2.78174 44.5992 5.51078 48.5022 3.09174 51.5209C3.09174 51.5209 6.59326 49.1425 10.0694 50.9568C9.5039 49.9833 9.17895 48.8889 9.12149 47.7646C9.06404 46.6403 9.27575 45.5185 9.73903 44.4924C9.73903 44.4924 6.76605 46.2915 2.78174 44.5992Z" fill="#E2E8F0"/>
  <path d="M27.2618 12.7756C27.2618 12.7756 27.8361 19.5754 22.688 21.5726C22.688 21.5726 28.7305 21.1457 31.734 25.8923C31.734 25.8923 31.5205 20.6884 35.9724 17.6544C35.9317 17.6544 30.9615 17.7459 27.2618 12.7756Z" fill="#E2E8F0"/>
  <path d="M125.071 46.9978C125.071 46.9978 85.5782 67.0261 79.5661 68.1746C73.5541 69.3231 66.4037 67.3157 66.6883 69.0335C66.9729 70.7512 70.4083 71.605 70.4083 71.605C70.4083 71.605 59.5379 73.3227 60.107 74.4712C60.6762 75.6198 67.8368 74.1816 67.8368 74.1816C67.8368 74.1816 58.9636 76.7582 60.9659 77.9016C62.9682 79.0451 69.2649 76.4736 69.2649 76.4736C69.2649 76.4736 59.8224 81.3371 62.399 81.6216C64.9756 81.9062 69.5545 79.3347 69.5545 79.3347C69.5545 79.3347 62.399 83.0548 65.2602 83.3394C68.1214 83.624 110.76 68.4592 125.071 59.8757" fill="white"/>
  <path d="M65.3464 83.599H65.2346C64.701 83.5431 64.3961 83.3602 64.3402 83.0552C64.2538 82.5979 64.8891 81.9575 65.7733 81.307C64.6892 81.7278 63.5306 81.9232 62.3684 81.8813C61.9771 81.8356 61.7535 81.6882 61.7077 81.429C61.5654 80.6667 64.0658 79.0557 66.3883 77.7394C64.4215 78.3137 61.9974 78.7914 60.8387 78.1308C60.7064 78.0756 60.5949 77.98 60.5201 77.8577C60.4452 77.7355 60.4109 77.5927 60.422 77.4498C60.5185 76.6468 62.5818 75.7066 64.5689 74.985C62.4853 75.2442 60.2543 75.3306 59.8782 74.5886C59.8443 74.5234 59.8267 74.4511 59.8267 74.3777C59.8267 74.3043 59.8443 74.2319 59.8782 74.1668C60.3864 73.1504 66.561 71.9968 69.3206 71.5343C68.228 71.1226 66.6373 70.3146 66.4289 69.0797C66.4078 68.9755 66.4115 68.8679 66.4397 68.7655C66.468 68.663 66.52 68.5687 66.5915 68.4902C67.0997 67.926 68.6548 68.0175 71.0231 68.1547C73.5234 68.297 76.6133 68.4749 79.5101 67.9311C85.4154 66.8029 124.552 46.9729 124.943 46.7747C125.004 46.7443 125.074 46.739 125.139 46.7599C125.204 46.7808 125.257 46.8263 125.289 46.8865C125.319 46.9465 125.324 47.016 125.303 47.0798C125.282 47.1436 125.237 47.1965 125.177 47.227C123.561 48.0452 85.5831 67.2908 79.6066 68.4292C76.6692 68.9882 73.5082 68.8052 70.9672 68.6629C69.0716 68.5511 67.2827 68.4495 66.9422 68.8256C66.9226 68.8483 66.9091 68.8755 66.9029 68.9049C66.8967 68.9342 66.8979 68.9646 66.9066 68.9933C67.1201 70.2689 69.5239 71.1379 70.4386 71.3666C70.506 71.37 70.5693 71.4 70.6146 71.45C70.6599 71.5 70.6834 71.566 70.68 71.6334C70.6767 71.7008 70.6467 71.7641 70.5966 71.8093C70.5466 71.8546 70.4806 71.8782 70.4132 71.8748C65.7327 72.6117 60.5338 73.7907 60.3 74.4158C60.5998 74.9748 64.4012 74.6242 67.7502 73.9533C67.7836 73.9453 67.8182 73.944 67.8521 73.9493C67.886 73.9547 67.9185 73.9667 67.9478 73.9846C67.977 74.0026 68.0025 74.0261 68.0227 74.0539C68.0428 74.0816 68.0573 74.1131 68.0653 74.1465C68.0733 74.1798 68.0747 74.2144 68.0693 74.2483C68.064 74.2822 68.052 74.3147 68.034 74.344C68.0161 74.3732 67.9926 74.3987 67.9648 74.4189C67.937 74.439 67.9056 74.4535 67.8722 74.4615C64.574 75.417 60.9708 76.8653 60.8895 77.5412C60.8895 77.6073 60.9911 77.6785 61.0572 77.7191C62.6123 78.6085 67.4148 76.9771 69.1326 76.2707C69.1941 76.2464 69.2626 76.2466 69.324 76.2712C69.3854 76.2957 69.4351 76.3429 69.4629 76.4029C69.4895 76.4624 69.4922 76.5299 69.4705 76.5914C69.4487 76.6529 69.4042 76.7037 69.346 76.7332C65.9258 78.4967 62.2312 80.7582 62.1702 81.3629C62.242 81.3827 62.315 81.398 62.3887 81.4087C64.3097 81.6221 67.4707 80.1331 68.7971 79.4622L69.3968 79.1421C69.4562 79.1116 69.5252 79.1056 69.5889 79.1256C69.6527 79.1456 69.706 79.1898 69.7373 79.2488C69.7535 79.2775 69.7638 79.309 69.7677 79.3417C69.7716 79.3744 69.769 79.4075 69.7601 79.4392C69.7511 79.4709 69.7359 79.5004 69.7154 79.5262C69.695 79.552 69.6696 79.5734 69.6408 79.5893C69.6001 79.5893 69.3663 79.7468 69.0004 79.9349C66.6271 81.2257 64.7264 82.5979 64.8027 82.9841C64.8027 82.9841 64.8941 83.0807 65.2499 83.1162H65.3769C66.9015 83.1162 77.3248 79.8027 90.7871 74.7207C98.1458 71.9459 116.197 64.9277 124.943 59.683C124.972 59.6622 125.004 59.6475 125.038 59.6398C125.073 59.6322 125.108 59.6317 125.143 59.6385C125.177 59.6453 125.21 59.6592 125.239 59.6792C125.268 59.6993 125.292 59.7252 125.311 59.7552C125.329 59.7852 125.341 59.8187 125.346 59.8536C125.35 59.8884 125.348 59.9239 125.338 59.9577C125.328 59.9915 125.312 60.0229 125.289 60.05C125.267 60.0771 125.239 60.0992 125.208 60.115C111.405 68.3682 69.3663 83.599 65.3464 83.599Z" fill="#1E293B"/>
  <path d="M117.772 63.9263C117.772 63.9263 111.674 49.6204 112.238 49.4272C112.802 49.2341 124.435 41.606 125.406 42.1803C126.376 42.7545 129.979 53.8181 128.836 57.0604C127.692 60.3028 117.772 63.9263 117.772 63.9263Z" fill="#3B82F6"/>
  <path d="M119.298 63.9976C119.243 63.9975 119.189 63.9803 119.145 63.9484C119.1 63.9165 119.066 63.8716 119.048 63.8197C119.028 63.7537 119.033 63.6821 119.065 63.6203C119.096 63.5585 119.151 63.5115 119.216 63.4894C119.303 63.4589 127.769 60.6028 131.113 56.3238C131.134 56.2969 131.161 56.2746 131.191 56.258C131.221 56.2414 131.254 56.231 131.288 56.2272C131.322 56.2234 131.356 56.2264 131.389 56.236C131.422 56.2456 131.452 56.2616 131.479 56.2831C131.507 56.3036 131.53 56.3295 131.548 56.3592C131.565 56.389 131.576 56.422 131.581 56.4562C131.585 56.4905 131.582 56.5252 131.573 56.5584C131.563 56.5915 131.547 56.6223 131.525 56.649C128.084 61.05 119.735 63.8706 119.384 63.9874C119.356 63.9958 119.327 63.9992 119.298 63.9976Z" fill="#1E293B"/>
  <path d="M126.062 32.9105C126 32.9092 125.94 32.8857 125.894 32.8443C125.848 32.8029 125.818 32.7463 125.81 32.6848C125.802 32.6233 125.816 32.561 125.851 32.5092C125.885 32.4574 125.936 32.4195 125.996 32.4023C126.944 32.1193 127.817 31.6266 128.55 30.9607C129.283 30.2948 129.857 29.4727 130.229 28.5552C130.97 26.68 131.146 24.6293 130.737 22.655C130.453 20.7465 129.623 18.9606 128.349 17.512C127.71 16.8108 126.922 16.2635 126.041 15.9114C125.161 15.5592 124.212 15.4115 123.267 15.4792L122.896 15.53C122.618 15.5765 122.338 15.6019 122.057 15.6062C121.714 15.5897 121.374 15.5404 121.041 15.4589L120.822 15.4131C119.031 15.0549 117.178 15.155 115.436 15.7041C113.693 16.2532 112.118 17.2335 110.856 18.554C109.594 19.8746 108.685 21.4925 108.215 23.2578C107.746 25.0231 107.729 26.8785 108.168 28.6518C108.29 29.16 108.585 29.968 109.21 30.0443C109.244 30.0474 109.277 30.0574 109.308 30.0739C109.338 30.0903 109.365 30.1128 109.386 30.1399C109.408 30.167 109.423 30.1982 109.432 30.2316C109.441 30.2649 109.443 30.2998 109.438 30.3339C109.435 30.3681 109.424 30.4011 109.407 30.4311C109.391 30.4612 109.368 30.4876 109.341 30.5089C109.314 30.5301 109.283 30.5459 109.25 30.5551C109.217 30.5643 109.183 30.5669 109.149 30.5626C108.452 30.4762 107.924 29.8461 107.66 28.7788C107.195 26.9174 107.209 24.9687 107.7 23.1142C108.191 21.2596 109.143 19.5593 110.468 18.1717C111.793 16.784 113.447 15.754 115.277 15.1775C117.107 14.601 119.053 14.4967 120.934 14.8744L121.163 14.9202C121.469 14.9974 121.782 15.0434 122.098 15.0574C122.35 15.0506 122.601 15.0269 122.85 14.9862C122.982 14.9862 123.109 14.9456 123.241 14.9354C124.266 14.853 125.296 15.0087 126.251 15.3904C127.206 15.7722 128.059 16.3696 128.745 17.1359C130.098 18.6561 130.981 20.5363 131.286 22.5483C131.711 24.6247 131.519 26.7802 130.732 28.7484C130.33 29.7387 129.71 30.6258 128.918 31.3438C128.127 32.0617 127.183 32.592 126.158 32.8953L126.062 32.9105Z" fill="#1E293B"/>
  <path d="M122.092 15.3319C122.092 15.3319 124.735 13.3703 129.029 14.4172C133.324 15.4641 134.945 23.2904 130.935 27.4881C130.935 27.4881 131.56 16.0485 122.092 15.3319Z" fill="#1E293B"/>
  <path d="M137.374 39.868H137.348C135.315 39.7428 133.367 39.0078 131.758 37.759C130.952 37.1226 130.303 36.3086 129.862 35.3805C129.421 34.4523 129.2 33.4349 129.217 32.4076C129.218 32.3729 129.225 32.3386 129.24 32.307C129.254 32.2754 129.275 32.247 129.301 32.2237C129.326 32.2003 129.356 32.1825 129.389 32.1713C129.422 32.1601 129.457 32.1558 129.492 32.1586C129.526 32.1599 129.56 32.168 129.591 32.1826C129.623 32.1972 129.651 32.2178 129.674 32.2434C129.697 32.269 129.715 32.2989 129.726 32.3315C129.738 32.364 129.743 32.3985 129.741 32.433C129.726 33.3774 129.93 34.3125 130.335 35.1656C130.741 36.0188 131.337 36.767 132.078 37.3524C133.32 38.3289 134.792 38.9694 136.352 39.2124C135.924 38.7322 135.651 38.1333 135.57 37.4947C135.486 36.5319 135.635 35.5631 136.002 34.6691C136.614 33.1506 137.361 31.6897 138.233 30.3036C139.498 28.1438 140.692 26.1059 140.957 23.7377C141.111 22.3697 140.929 20.9847 140.425 19.7036C139.921 18.4226 139.111 17.2844 138.066 16.3885C137.02 15.4926 135.772 14.8664 134.429 14.5644C133.085 14.2624 131.689 14.2939 130.361 14.6561C130.293 14.6735 130.222 14.6641 130.161 14.63C130.101 14.5959 130.056 14.5397 130.035 14.4731C130.026 14.4401 130.024 14.4055 130.028 14.3715C130.032 14.3375 130.043 14.3046 130.06 14.2748C130.077 14.245 130.1 14.2189 130.127 14.198C130.154 14.1771 130.185 14.1618 130.218 14.153C131.63 13.7675 133.115 13.7338 134.543 14.0549C135.971 14.3759 137.299 15.0418 138.41 15.9945C139.521 16.9472 140.382 18.1575 140.917 19.5197C141.452 20.882 141.646 22.3546 141.48 23.8088C141.201 26.2837 139.92 28.4639 138.685 30.5781C137.842 31.9337 137.12 33.3604 136.525 34.8419C136.18 35.6542 136.04 36.5392 136.119 37.4185C136.158 37.8317 136.304 38.2276 136.541 38.5679C136.779 38.9081 137.101 39.1809 137.475 39.3598C137.532 39.3831 137.578 39.425 137.607 39.4784C137.635 39.5318 137.645 39.5935 137.634 39.6531C137.622 39.7127 137.591 39.7666 137.544 39.8057C137.498 39.8449 137.44 39.8669 137.379 39.868H137.374Z" fill="#1E293B"/>
  <path d="M114.053 51.5516C113.988 51.563 113.921 51.5497 113.865 51.5143C113.809 51.4788 113.769 51.4239 113.752 51.3602C113.735 51.2965 113.742 51.2286 113.772 51.17C113.802 51.1114 113.854 51.0662 113.915 51.0434L124.359 44.6044C124.418 44.5686 124.49 44.5575 124.557 44.5737C124.625 44.5898 124.683 44.6319 124.72 44.6908C124.738 44.7201 124.751 44.7527 124.756 44.7868C124.762 44.8209 124.761 44.8558 124.753 44.8895C124.745 44.9231 124.73 44.9547 124.709 44.9826C124.689 45.0105 124.663 45.0339 124.633 45.0517L114.19 51.4906C114.151 51.5235 114.103 51.5447 114.053 51.5516Z" fill="#1E293B"/>
  <path d="M0.449107 70.5432C0.387106 70.5432 0.327644 70.5186 0.283803 70.4747C0.239962 70.4309 0.215332 70.3714 0.215332 70.3094C0.215332 70.2474 0.239962 70.188 0.283803 70.1441C0.327644 70.1003 0.387106 70.0756 0.449107 70.0756L16.2034 69.2168C16.2348 69.2132 16.2666 69.2163 16.2968 69.2259C16.3269 69.2355 16.3547 69.2514 16.3782 69.2726C16.4017 69.2937 16.4205 69.3196 16.4333 69.3485C16.4461 69.3774 16.4526 69.4088 16.4524 69.4404C16.4552 69.5016 16.4339 69.5614 16.393 69.607C16.3521 69.6526 16.295 69.6804 16.2339 69.6843L0.479598 70.5432H0.449107Z" fill="#E2E8F0"/>
  <path d="M38.2239 118.909C38.179 118.909 38.1348 118.897 38.0968 118.873C38.045 118.839 38.0085 118.786 37.9953 118.725C37.982 118.664 37.9929 118.601 38.0257 118.548L45.7555 106.529C45.7711 106.501 45.7923 106.477 45.8177 106.457C45.8432 106.438 45.8723 106.424 45.9034 106.416C45.9344 106.409 45.9667 106.407 45.9982 106.413C46.0297 106.418 46.0598 106.43 46.0866 106.447C46.1134 106.465 46.1364 106.487 46.1541 106.514C46.1717 106.541 46.1838 106.571 46.1894 106.602C46.195 106.633 46.1942 106.666 46.1868 106.697C46.1795 106.728 46.1659 106.757 46.1468 106.783L38.4424 118.802C38.4193 118.838 38.3867 118.867 38.3481 118.886C38.3096 118.905 38.2666 118.913 38.2239 118.909Z" fill="#E2E8F0"/>
  <path d="M9.03253 99.4495C8.99085 99.4491 8.95003 99.4376 8.91429 99.4162C8.87854 99.3948 8.84919 99.3641 8.82925 99.3275C8.81412 99.3009 8.80448 99.2716 8.80089 99.2412C8.79731 99.2108 8.79986 99.18 8.80839 99.1507C8.81692 99.1213 8.83125 99.0939 8.85055 99.0702C8.86984 99.0464 8.89371 99.0268 8.92073 99.0124L20.6551 92.4261C20.7099 92.3967 20.774 92.3898 20.8338 92.4069C20.8936 92.424 20.9443 92.4637 20.9753 92.5176C20.9907 92.5443 21.0008 92.5738 21.0048 92.6043C21.0088 92.6349 21.0067 92.6659 20.9987 92.6957C20.9907 92.7254 20.9768 92.7533 20.958 92.7777C20.9391 92.8021 20.9157 92.8225 20.8889 92.8378L9.1545 99.4444C9.11501 99.4569 9.07292 99.4586 9.03253 99.4495Z" fill="#E2E8F0"/>
  <path d="M96.032 8.1561C95.9943 8.156 95.9572 8.1468 95.9239 8.12929C95.8906 8.11179 95.862 8.08649 95.8405 8.05556C95.819 8.02462 95.8054 7.98896 95.8007 7.9516C95.796 7.91425 95.8003 7.87631 95.8134 7.84101L98.6746 0.136664C98.6992 0.0829196 98.7431 0.0404625 98.7977 0.0178308C98.8523 -0.00480093 98.9134 -0.00592851 98.9688 0.0146757C99.0242 0.0352798 99.0697 0.076087 99.0962 0.12889C99.1227 0.181692 99.1282 0.242573 99.1117 0.299288L96.2505 8.02397C96.2313 8.06523 96.2003 8.09984 96.1614 8.12338C96.1225 8.14691 96.0774 8.15831 96.032 8.1561Z" fill="#E2E8F0"/>
  <path d="M139.245 54.8042C139.19 54.8048 139.136 54.7857 139.094 54.7502C139.052 54.7148 139.024 54.6654 139.016 54.6111C139.011 54.5807 139.012 54.5496 139.019 54.5196C139.026 54.4896 139.039 54.4613 139.056 54.4362C139.074 54.4112 139.097 54.39 139.123 54.3737C139.149 54.3575 139.179 54.3466 139.209 54.3417L151.513 52.3089C151.574 52.3 151.636 52.3151 151.686 52.3511C151.736 52.3871 151.771 52.4412 151.782 52.502C151.787 52.5324 151.786 52.5635 151.779 52.5935C151.772 52.6235 151.759 52.6518 151.741 52.6768C151.723 52.7018 151.701 52.7231 151.675 52.7393C151.648 52.7555 151.619 52.7664 151.589 52.7714L139.28 54.7788L139.245 54.8042Z" fill="#E2E8F0"/>
  <path d="M138.96 105.746C138.924 105.747 138.889 105.739 138.857 105.723C138.825 105.707 138.798 105.683 138.777 105.655L131.047 95.9278C131.009 95.8783 130.993 95.8161 131 95.7544C131.008 95.6927 131.039 95.6364 131.088 95.5975C131.111 95.5781 131.138 95.5636 131.168 95.5549C131.197 95.5462 131.227 95.5435 131.258 95.5468C131.288 95.5501 131.317 95.5594 131.344 95.5742C131.371 95.589 131.394 95.609 131.413 95.633L139.143 105.365C139.162 105.389 139.176 105.417 139.184 105.447C139.193 105.477 139.195 105.508 139.191 105.539C139.188 105.57 139.178 105.599 139.162 105.626C139.147 105.653 139.127 105.677 139.102 105.695C139.061 105.727 139.011 105.745 138.96 105.746Z" fill="#E2E8F0"/>
  <path d="M18.6629 23.1226C18.6069 23.1232 18.5527 23.1033 18.5104 23.0667L12.9862 18.32C12.9437 18.2756 12.9199 18.2164 12.9199 18.1549C12.9199 18.0933 12.9437 18.0342 12.9862 17.9897C13.0058 17.9657 13.0301 17.9459 13.0575 17.9316C13.085 17.9172 13.1151 17.9086 13.146 17.9062C13.1768 17.9038 13.2079 17.9077 13.2372 17.9177C13.2666 17.9277 13.2935 17.9436 13.3166 17.9643L18.8407 22.7109C18.8647 22.7305 18.8845 22.7547 18.8989 22.7822C18.9132 22.8097 18.9219 22.8397 18.9242 22.8706C18.9266 22.9015 18.9227 22.9326 18.9127 22.9619C18.9027 22.9912 18.8869 23.0182 18.8661 23.0412C18.8421 23.0711 18.8107 23.0942 18.7751 23.1085C18.7395 23.1227 18.7009 23.1276 18.6629 23.1226Z" fill="#E2E8F0"/>
  <path d="M115.923 82.008C115.881 82.0082 115.839 81.9977 115.801 81.9775C115.772 81.9621 115.746 81.9409 115.725 81.9154C115.704 81.8898 115.688 81.8603 115.679 81.8286C115.669 81.7969 115.666 81.7636 115.67 81.7307C115.673 81.6978 115.683 81.666 115.699 81.637L121.234 71.5238C121.26 71.4743 121.303 71.4353 121.355 71.4132C121.406 71.3911 121.464 71.387 121.518 71.4018C121.573 71.4147 121.622 71.4459 121.656 71.4904C121.69 71.5348 121.708 71.5897 121.706 71.6458V80.6105C121.706 80.6779 121.68 80.7425 121.632 80.7901C121.584 80.8378 121.52 80.8646 121.452 80.8646C121.385 80.8646 121.32 80.8378 121.273 80.7901C121.225 80.7425 121.198 80.6779 121.198 80.6105V72.6368L116.116 81.881C116.096 81.9159 116.068 81.9456 116.035 81.9677C116.001 81.9898 115.963 82.0036 115.923 82.008Z" fill="white"/>
</svg>