<svg xmlns="http://www.w3.org/2000/svg" width="25" height="24" viewBox="0 0 25 24" fill="none">
  <path d="M12.25 0C9.87663 0 7.55655 0.703788 5.58316 2.02236C3.60977 3.34094 2.0717 5.21509 1.16345 7.4078C0.255199 9.60051 0.0175594 12.0133 0.480582 14.3411C0.943605 16.6689 2.08649 18.8071 3.76472 20.4853C5.44295 22.1635 7.58115 23.3064 9.90892 23.7694C12.2367 24.2324 14.6495 23.9948 16.8422 23.0866C19.0349 22.1783 20.9091 20.6402 22.2276 18.6668C23.5462 16.6935 24.25 14.3734 24.25 12C24.2466 8.81846 22.9812 5.76821 20.7315 3.51852C18.4818 1.26883 15.4315 0.00344108 12.25 0ZM12.25 22C10.2722 22 8.33879 21.4135 6.6943 20.3147C5.04981 19.2159 3.76809 17.6541 3.01121 15.8268C2.25433 13.9996 2.0563 11.9889 2.44215 10.0491C2.828 8.10929 3.78041 6.32746 5.17894 4.92893C6.57746 3.53041 8.35929 2.578 10.2991 2.19215C12.2389 1.8063 14.2496 2.00433 16.0768 2.7612C17.9041 3.51808 19.4659 4.79981 20.5647 6.4443C21.6635 8.08879 22.25 10.0222 22.25 12C22.2471 14.6513 21.1926 17.1931 19.3179 19.0679C17.4431 20.9426 14.9013 21.9971 12.25 22ZM17.25 12C17.25 12.2652 17.1446 12.5196 16.9571 12.7071C16.7696 12.8946 16.5152 13 16.25 13H13.25V16C13.25 16.2652 13.1446 16.5196 12.9571 16.7071C12.7696 16.8946 12.5152 17 12.25 17C11.9848 17 11.7304 16.8946 11.5429 16.7071C11.3554 16.5196 11.25 16.2652 11.25 16V13H8.25001C7.98479 13 7.73043 12.8946 7.5429 12.7071C7.35536 12.5196 7.25001 12.2652 7.25001 12C7.25001 11.7348 7.35536 11.4804 7.5429 11.2929C7.73043 11.1054 7.98479 11 8.25001 11H11.25V8C11.25 7.73478 11.3554 7.48043 11.5429 7.29289C11.7304 7.10536 11.9848 7 12.25 7C12.5152 7 12.7696 7.10536 12.9571 7.29289C13.1446 7.48043 13.25 7.73478 13.25 8V11H16.25C16.5152 11 16.7696 11.1054 16.9571 11.2929C17.1446 11.4804 17.25 11.7348 17.25 12Z" fill="#1575EB"/>
</svg>