<svg xmlns="http://www.w3.org/2000/svg" width="20" height="20" viewBox="0 0 20 20" fill="none">
  <g clip-path="url(#clip0_12_11430)">
    <path d="M10 0C4.48578 0 0 4.48578 0 10C0 15.5142 4.48578 20 10 20C15.5142 20 20 15.5142 20 10C20 4.48578 15.5142 0 10 0Z" fill="#20C46C"/>
    <path d="M10 0C4.48578 0 0 4.48578 0 10C0 15.5142 4.48578 20 10 20C15.5142 20 20 15.5142 20 10C20 4.48578 15.5142 0 10 0Z" fill="black" fill-opacity="0.2"/>
    <path d="M14.375 10.8336H10.8333V14.3753C10.8333 14.8353 10.4601 15.2086 10 15.2086C9.53998 15.2086 9.16675 14.8353 9.16675 14.3753V10.8336H5.62503C5.16498 10.8336 4.79175 10.4603 4.79175 10.0003C4.79175 9.54022 5.16498 9.16699 5.62503 9.16699H9.16675V5.62527C9.16675 5.16522 9.53998 4.79199 10 4.79199C10.4601 4.79199 10.8333 5.16522 10.8333 5.62527V9.16699H14.375C14.8351 9.16699 15.2083 9.54022 15.2083 10.0003C15.2083 10.4603 14.8351 10.8336 14.375 10.8336Z" fill="#EEEEEE"/>
  </g>
  <defs>
    <clipPath id="clip0_12_11430">
      <rect width="20" height="20" fill="white"/>
    </clipPath>
  </defs>
</svg>