<svg xmlns="http://www.w3.org/2000/svg" width="18" height="27" viewBox="0 0 18 27" fill="none">
  <g clip-path="url(#clip0_62_4169)">
    <path fill-rule="evenodd" clip-rule="evenodd" d="M-5.49923 -8.77236C-5.34089 -8.93019 -5.15279 -9.05541 -4.9457 -9.14085C-4.73862 -9.22628 -4.51661 -9.27026 -4.29241 -9.27026C-4.0682 -9.27026 -3.8462 -9.22628 -3.63911 -9.14085C-3.43203 -9.05541 -3.24393 -8.93019 -3.08559 -8.77236L17.369 11.5648C17.5277 11.7222 17.6536 11.9092 17.7396 12.1151C17.8255 12.321 17.8697 12.5418 17.8697 12.7647C17.8697 12.9876 17.8255 13.2083 17.7396 13.4142C17.6536 13.6201 17.5277 13.8072 17.369 13.9646L-3.08559 34.3017C-3.40566 34.62 -3.83977 34.7988 -4.29241 34.7988C-4.74506 34.7988 -5.17916 34.62 -5.49923 34.3017C-5.8193 33.9835 -5.99911 33.5519 -5.99911 33.1018C-5.99911 32.6518 -5.8193 32.2202 -5.49923 31.902L13.7519 12.7647L-5.49923 -6.37258C-5.65797 -6.53001 -5.78391 -6.71703 -5.86984 -6.92292C-5.95577 -7.12882 -6 -7.34955 -6 -7.57247C-6 -7.79539 -5.95577 -8.01612 -5.86984 -8.22202C-5.78391 -8.42792 -5.65797 -8.61493 -5.49923 -8.77236Z" fill="#1577EB"/>
  </g>
  <defs>
    <clipPath id="clip0_62_4169">
      <rect width="24" height="44.4706" fill="white" transform="translate(-6 -9.47058)"/>
    </clipPath>
  </defs>
</svg>