<svg xmlns="http://www.w3.org/2000/svg" width="18" height="27" viewBox="0 0 18 27" fill="none">
  <g clip-path="url(#clip0_62_4166)">
    <path fill-rule="evenodd" clip-rule="evenodd" d="M23.3693 35.5708C23.211 35.7287 23.0229 35.8539 22.8158 35.9393C22.6087 36.0247 22.3867 36.0687 22.1625 36.0687C21.9383 36.0687 21.7163 36.0247 21.5092 35.9393C21.3021 35.8539 21.114 35.7287 20.9557 35.5708L0.501163 15.2337C0.342424 15.0762 0.216484 14.8892 0.130552 14.6833C0.0446224 14.4774 0.000389099 14.2567 0.000389118 14.0338C0.000389138 13.8109 0.0446225 13.5901 0.130552 13.3842C0.216484 13.1783 0.342425 12.9913 0.501164 12.8339L20.9557 -7.50328C21.2758 -7.82151 21.7099 -8.00029 22.1625 -8.00029C22.6152 -8.00029 23.0493 -7.82151 23.3693 -7.50328C23.6894 -7.18505 23.8692 -6.75343 23.8692 -6.30339C23.8692 -5.85334 23.6894 -5.42173 23.3693 -5.10349L4.11821 14.0338L23.3693 33.171C23.5281 33.3285 23.654 33.5155 23.74 33.7214C23.8259 33.9273 23.8701 34.148 23.8701 34.3709C23.8701 34.5939 23.8259 34.8146 23.74 35.0205C23.654 35.2264 23.5281 35.4134 23.3693 35.5708Z" fill="#1577EB"/>
  </g>
  <defs>
    <clipPath id="clip0_62_4166">
      <rect width="24" height="44.4706" fill="white" transform="translate(24 36.4706) rotate(-180)"/>
    </clipPath>
  </defs>
</svg>