<svg xmlns="http://www.w3.org/2000/svg" width="21" height="20" viewBox="0 0 21 20" fill="none">
  <path d="M8.07227 17.7773C8.76262 17.7773 9.32227 17.2177 9.32227 16.5273C9.32227 15.837 8.76262 15.2773 8.07227 15.2773C7.38191 15.2773 6.82227 15.837 6.82227 16.5273C6.82227 17.2177 7.38191 17.7773 8.07227 17.7773Z" fill="#1577EB"/>
  <path d="M15.667 17.7773C16.3573 17.7773 16.917 17.2177 16.917 16.5273C16.917 15.837 16.3573 15.2773 15.667 15.2773C14.9766 15.2773 14.417 15.837 14.417 16.5273C14.417 17.2177 14.9766 17.7773 15.667 17.7773Z" fill="#1577EB"/>
  <path d="M19.0444 2.98305C18.9927 2.91933 18.9275 2.86784 18.8535 2.8323C18.7796 2.79676 18.6987 2.77804 18.6166 2.7775H7.04994L7.41105 3.88861H17.8888L16.4055 10.5553H8.07216L5.53327 2.51639C5.50581 2.43109 5.45812 2.3537 5.39427 2.29082C5.33043 2.22794 5.25232 2.18143 5.16661 2.15528L2.88883 1.45528C2.81879 1.43375 2.7452 1.42624 2.67226 1.43316C2.59931 1.44008 2.52845 1.46129 2.4637 1.4956C2.33295 1.56488 2.23507 1.68327 2.19161 1.82472C2.14814 1.96617 2.16264 2.11909 2.23193 2.24985C2.30121 2.3806 2.4196 2.47848 2.56105 2.52194L4.55549 3.13305L7.10549 11.1886L6.19438 11.9331L6.12216 12.0053C5.89679 12.265 5.76905 12.5952 5.76094 12.9389C5.75283 13.2827 5.86485 13.6186 6.07772 13.8886C6.22914 14.0728 6.42155 14.2189 6.63957 14.3154C6.85759 14.4118 7.09516 14.4559 7.33327 14.4442H16.6055C16.7528 14.4442 16.8941 14.3856 16.9983 14.2814C17.1025 14.1773 17.161 14.036 17.161 13.8886C17.161 13.7413 17.1025 13.6 16.9983 13.4958C16.8941 13.3916 16.7528 13.3331 16.6055 13.3331H7.24438C7.18041 13.3309 7.11808 13.3122 7.06342 13.2789C7.00875 13.2456 6.9636 13.1988 6.93232 13.1429C6.90105 13.0871 6.8847 13.0241 6.88487 12.9601C6.88504 12.8961 6.90171 12.8332 6.93327 12.7775L8.27216 11.6664H16.8499C16.9784 11.6695 17.1039 11.6281 17.2052 11.5491C17.3065 11.47 17.3773 11.3584 17.4055 11.2331L19.1666 3.45528C19.1835 3.37245 19.1813 3.28687 19.1601 3.20503C19.1389 3.1232 19.0993 3.04728 19.0444 2.98305Z" fill="#1577EB"/>
</svg>