<svg xmlns="http://www.w3.org/2000/svg" width="20" height="24" viewBox="0 0 20 24" fill="none">
  <path d="M19 4H15.9C15.6679 2.87141 15.0538 1.85735 14.1612 1.12872C13.2687 0.40009 12.1522 0.00145452 11 0L9 0C7.84779 0.00145452 6.73132 0.40009 5.83875 1.12872C4.94618 1.85735 4.3321 2.87141 4.1 4H1C0.734783 4 0.48043 4.10536 0.292893 4.29289C0.105357 4.48043 0 4.73478 0 5C0 5.26522 0.105357 5.51957 0.292893 5.70711C0.48043 5.89464 0.734783 6 1 6H2V19C2.00159 20.3256 2.52888 21.5964 3.46622 22.5338C4.40356 23.4711 5.6744 23.9984 7 24H13C14.3256 23.9984 15.5964 23.4711 16.5338 22.5338C17.4711 21.5964 17.9984 20.3256 18 19V6H19C19.2652 6 19.5196 5.89464 19.7071 5.70711C19.8946 5.51957 20 5.26522 20 5C20 4.73478 19.8946 4.48043 19.7071 4.29289C19.5196 4.10536 19.2652 4 19 4ZM9 2H11C11.6203 2.00076 12.2251 2.19338 12.7316 2.55144C13.2381 2.90951 13.6214 3.41549 13.829 4H6.171C6.37858 3.41549 6.7619 2.90951 7.26839 2.55144C7.77487 2.19338 8.37972 2.00076 9 2ZM16 19C16 19.7956 15.6839 20.5587 15.1213 21.1213C14.5587 21.6839 13.7956 22 13 22H7C6.20435 22 5.44129 21.6839 4.87868 21.1213C4.31607 20.5587 4 19.7956 4 19V6H16V19Z" fill="#DC3545"/>
  <path d="M7.99902 18C8.26424 18 8.51859 17.8946 8.70613 17.7071C8.89367 17.5196 8.99902 17.2652 8.99902 17V11C8.99902 10.7348 8.89367 10.4804 8.70613 10.2929C8.51859 10.1054 8.26424 10 7.99902 10C7.73381 10 7.47945 10.1054 7.29192 10.2929C7.10438 10.4804 6.99902 10.7348 6.99902 11V17C6.99902 17.2652 7.10438 17.5196 7.29192 17.7071C7.47945 17.8946 7.73381 18 7.99902 18ZM11.999 18C12.2642 18 12.5186 17.8946 12.7061 17.7071C12.8937 17.5196 12.999 17.2652 12.999 17V11C12.999 10.7348 12.8937 10.4804 12.7061 10.2929C12.5186 10.1054 12.2642 10 11.999 10C11.7338 10 11.4795 10.1054 11.2919 10.2929C11.1044 10.4804 10.999 10.7348 10.999 11V17C10.999 17.2652 11.1044 17.5196 11.2919 17.7071C11.4795 17.8946 11.7338 18 11.999 18Z" fill="#DC3545"/>
</svg>