<svg xmlns="http://www.w3.org/2000/svg" width="21" height="21" viewBox="0 0 21 21" fill="none">
  <path d="M11.6786 7.13534C11.8547 6.96771 12.089 6.87503 12.3322 6.87687C12.5753 6.87871 12.8082 6.97492 12.9817 7.1452C13.1552 7.31549 13.2558 7.54652 13.2622 7.78956C13.2687 8.0326 13.1804 8.26863 13.0161 8.44784L8.02864 14.6853C7.94288 14.7777 7.83937 14.8518 7.7243 14.9033C7.60924 14.9548 7.48498 14.9825 7.35895 14.9848C7.23293 14.9871 7.10773 14.964 6.99084 14.9169C6.87394 14.8697 6.76776 14.7995 6.67864 14.7103L3.37114 11.4028C3.27903 11.317 3.20515 11.2135 3.15391 11.0985C3.10267 10.9835 3.07512 10.8594 3.0729 10.7335C3.07068 10.6076 3.09383 10.4826 3.14099 10.3658C3.18814 10.2491 3.25832 10.1431 3.34734 10.054C3.43636 9.96502 3.54241 9.89484 3.65914 9.84769C3.77588 9.80054 3.90091 9.77738 4.02679 9.7796C4.15267 9.78183 4.27681 9.80938 4.39181 9.86062C4.50681 9.91186 4.61031 9.98574 4.69614 10.0778L7.31364 12.6941L11.6536 7.16284C11.6614 7.15319 11.6698 7.14401 11.6786 7.13534ZM10.5286 13.5603L11.6786 14.7103C11.7677 14.7993 11.8738 14.8694 11.9906 14.9164C12.1074 14.9635 12.2324 14.9865 12.3583 14.9842C12.4842 14.9818 12.6083 14.9542 12.7233 14.9028C12.8382 14.8515 12.9416 14.7775 13.0274 14.6853L18.0174 8.44784C18.107 8.35935 18.1779 8.25369 18.2258 8.13719C18.2737 8.02069 18.2976 7.89573 18.2962 7.76977C18.2947 7.64381 18.2679 7.51945 18.2173 7.40409C18.1667 7.28874 18.0933 7.18477 18.0017 7.09838C17.91 7.012 17.8018 6.94497 17.6837 6.90131C17.5655 6.85765 17.4398 6.83825 17.314 6.84427C17.1881 6.85029 17.0648 6.8816 16.9514 6.93633C16.8379 6.99107 16.7367 7.06811 16.6536 7.16284L12.3124 12.6941L11.7061 12.0866L10.5274 13.5603H10.5286Z" fill="#0D8BFF"/>
</svg>