<svg xmlns="http://www.w3.org/2000/svg" width="17" height="14" viewBox="0 0 17 14" fill="none">
  <path d="M16.0111 5.23199C14.9775 3.50204 12.6264 0.599609 8.49991 0.599609C4.37344 0.599609 2.02231 3.50204 0.988691 5.23199C0.669162 5.7631 0.499908 6.37518 0.499908 6.99961C0.499908 7.62404 0.669162 8.23612 0.988691 8.76723C2.02231 10.4972 4.37344 13.3996 8.49991 13.3996C12.6264 13.3996 14.9775 10.4972 16.0111 8.76723C16.3307 8.23612 16.4999 7.62404 16.4999 6.99961C16.4999 6.37518 16.3307 5.7631 16.0111 5.23199ZM14.8749 8.05018C13.9872 9.53359 11.978 12.0299 8.49991 12.0299C5.02186 12.0299 3.01261 9.53359 2.12494 8.05018C1.9351 7.73449 1.83454 7.37072 1.83454 6.99961C1.83454 6.6285 1.9351 6.26473 2.12494 5.94904C3.01261 4.46563 5.02186 1.96933 8.49991 1.96933C11.978 1.96933 13.9872 4.46289 14.8749 5.94904C15.0647 6.26473 15.1653 6.6285 15.1653 6.99961C15.1653 7.37072 15.0647 7.73449 14.8749 8.05018Z" fill="#0D6EFD"/>
  <path d="M8.49944 3.7627C7.84017 3.7627 7.1957 3.95256 6.64754 4.30829C6.09938 4.66402 5.67214 5.16963 5.41984 5.76119C5.16755 6.35274 5.10154 7.00367 5.23016 7.63166C5.35878 8.25965 5.67624 8.8365 6.14242 9.28925C6.60859 9.74201 7.20254 10.0503 7.84914 10.1753C8.49574 10.3002 9.16597 10.2361 9.77505 9.99103C10.3841 9.746 10.9047 9.33106 11.271 8.79867C11.6373 8.26629 11.8328 7.64037 11.8328 7.00008C11.8317 6.14179 11.4802 5.31894 10.8553 4.71204C10.2304 4.10513 9.38317 3.76372 8.49944 3.7627ZM8.49944 8.94251C8.10388 8.94251 7.7172 8.82859 7.3883 8.61515C7.0594 8.40171 6.80306 8.09835 6.65168 7.74341C6.50031 7.38848 6.4607 6.99792 6.53787 6.62113C6.61504 6.24433 6.80552 5.89823 7.08523 5.62657C7.36493 5.35492 7.7213 5.16992 8.10926 5.09497C8.49722 5.02002 8.89936 5.05849 9.26481 5.20551C9.63026 5.35252 9.94262 5.60149 10.1624 5.92092C10.3821 6.24035 10.4994 6.6159 10.4994 7.00008C10.4994 7.51524 10.2887 8.00931 9.91366 8.37358C9.53858 8.73786 9.02987 8.94251 8.49944 8.94251Z" fill="#0D6EFD"/>
</svg>