<svg xmlns="http://www.w3.org/2000/svg" width="22" height="20" viewBox="0 0 22 20" fill="none">
  <path d="M2 1L20 19" stroke="#64748B" stroke-width="1.5" stroke-linecap="round" stroke-linejoin="round"/>
  <path d="M9.58396 8.58691C9.20868 8.96193 8.99775 9.47067 8.99756 10.0012C8.99737 10.5317 9.20795 11.0406 9.58296 11.4159C9.95798 11.7912 10.4667 12.0021 10.9973 12.0023C11.5278 12.0025 12.0367 11.7919 12.412 11.4169" stroke="#64748B" stroke-width="1.5" stroke-linecap="round" stroke-linejoin="round"/>
  <path d="M8.363 3.36506C9.22042 3.11978 10.1082 2.9969 11 3.00006C15 3.00006 18.333 5.33306 21 10.0001C20.222 11.3611 19.388 12.5241 18.497 13.4881M16.357 15.3491C14.726 16.4491 12.942 17.0001 11 17.0001C7 17.0001 3.667 14.6671 1 10.0001C2.369 7.60506 3.913 5.82506 5.632 4.65906" stroke="#64748B" stroke-width="1.5" stroke-linecap="round" stroke-linejoin="round"/>
</svg>