<svg xmlns="http://www.w3.org/2000/svg" width="17" height="16" viewBox="0 0 17 16" fill="none">
  <g clip-path="url(#clip0_65_8721)">
    <path d="M16.5 8C16.5 3.58125 12.9187 0 8.5 0C4.08125 0 0.5 3.58125 0.5 8C0.5 12.4187 4.08125 16 8.5 16C8.54688 16 8.59375 16 8.64062 15.9969V9.77188H6.92188V7.76875H8.64062V6.29375C8.64062 4.58437 9.68438 3.65313 11.2094 3.65313C11.9406 3.65313 12.5688 3.70625 12.75 3.73125V5.51875H11.7C10.8719 5.51875 10.7094 5.9125 10.7094 6.49062V7.76562H12.6938L12.4344 9.76875H10.7094V15.6906C14.0531 14.7312 16.5 11.6531 16.5 8Z" fill="white"/>
  </g>
  <defs>
    <clipPath id="clip0_65_8721">
      <rect width="16" height="16" fill="white" transform="translate(0.5)"/>
    </clipPath>
  </defs>
</svg>