<svg xmlns="http://www.w3.org/2000/svg" width="21" height="20" viewBox="0 0 21 20" fill="none">
  <path d="M19.5011 10.1944C19.5011 9.47495 19.4415 8.94995 19.3126 8.40552H10.9297V11.6527H15.8503C15.7511 12.4597 15.2154 13.675 14.0249 14.4916L14.0082 14.6003L16.6587 16.6126L16.8424 16.6305C18.5288 15.1041 19.5011 12.8583 19.5011 10.1944Z" fill="#1577EB"/>
  <path d="M10.9288 18.75C13.3395 18.75 15.3633 17.9722 16.8415 16.6305L14.024 14.4916C13.2701 15.0068 12.2581 15.3666 10.9288 15.3666C8.56773 15.3666 6.56379 13.8402 5.84944 11.7305L5.74473 11.7392L2.98868 13.8295L2.95264 13.9277C4.42087 16.786 7.43674 18.75 10.9288 18.75Z" fill="#34A853"/>
  <path d="M5.85014 11.7305C5.66165 11.186 5.55257 10.6027 5.55257 9.99992C5.55257 9.3971 5.66165 8.81379 5.84022 8.26935L5.83523 8.1534L3.04464 6.02954L2.95333 6.0721C2.3482 7.25823 2.00098 8.5902 2.00098 9.99992C2.00098 11.4096 2.3482 12.7415 2.95333 13.9277L5.85014 11.7305Z" fill="#FBBC05"/>
  <path d="M10.9289 4.63331C12.6054 4.63331 13.7364 5.34303 14.3812 5.93613L16.9011 3.525C15.3535 2.11528 13.3395 1.25 10.9289 1.25C7.43676 1.25 4.42088 3.21387 2.95264 6.07218L5.83953 8.26944C6.56381 6.15972 8.56776 4.63331 10.9289 4.63331Z" fill="#EB4335"/>
</svg>