<svg xmlns="http://www.w3.org/2000/svg" width="15" height="16" viewBox="0 0 15 16" fill="none">
  <g clip-path="url(#clip0_65_8717)">
    <path d="M7.49995 2.17428C9.3984 2.17428 9.62322 2.18261 10.3698 2.21592C11.0637 2.24645 11.4384 2.36302 11.6882 2.46016C12.0185 2.58783 12.2572 2.74326 12.5042 2.99028C12.754 3.24008 12.9066 3.476 13.0343 3.80628C13.1315 4.05608 13.248 4.43355 13.2786 5.12465C13.3119 5.87403 13.3202 6.09885 13.3202 7.99452C13.3202 9.89297 13.3119 10.1178 13.2786 10.8644C13.248 11.5583 13.1315 11.933 13.0343 12.1828C12.9066 12.513 12.7512 12.7517 12.5042 12.9988C12.2544 13.2486 12.0185 13.4012 11.6882 13.5289C11.4384 13.626 11.0609 13.7426 10.3698 13.7731C9.62044 13.8064 9.39562 13.8148 7.49995 13.8148C5.6015 13.8148 5.37669 13.8064 4.63008 13.7731C3.9362 13.7426 3.56151 13.626 3.31171 13.5289C2.98143 13.4012 2.74273 13.2458 2.49571 12.9988C2.24592 12.749 2.09326 12.513 1.96559 12.1828C1.86845 11.933 1.75188 11.5555 1.72135 10.8644C1.68804 10.115 1.67971 9.89019 1.67971 7.99452C1.67971 6.09608 1.68804 5.87126 1.72135 5.12465C1.75188 4.43077 1.86845 4.05608 1.96559 3.80628C2.09326 3.476 2.24869 3.2373 2.49571 2.99028C2.74551 2.74049 2.98143 2.58783 3.31171 2.46016C3.56151 2.36302 3.93898 2.24645 4.63008 2.21592C5.37669 2.18261 5.6015 2.17428 7.49995 2.17428ZM7.49995 0.894775C5.57097 0.894775 5.32951 0.903102 4.57179 0.936408C3.81685 0.969714 3.29783 1.09184 2.8482 1.26669C2.37914 1.44988 1.98224 1.69135 1.58812 2.08824C1.19122 2.48237 0.949755 2.87926 0.766571 3.34555C0.591714 3.79796 0.469592 4.3142 0.436286 5.06914C0.40298 5.82963 0.394653 6.0711 0.394653 8.00007C0.394653 9.92905 0.40298 10.1705 0.436286 10.9282C0.469592 11.6832 0.591714 12.2022 0.766571 12.6518C0.949755 13.1209 1.19122 13.5178 1.58812 13.9119C1.98224 14.306 2.37914 14.5503 2.84543 14.7307C3.29783 14.9055 3.81408 15.0277 4.56902 15.061C5.32673 15.0943 5.5682 15.1026 7.49718 15.1026C9.42615 15.1026 9.66762 15.0943 10.4253 15.061C11.1803 15.0277 11.6993 14.9055 12.1489 14.7307C12.6152 14.5503 13.0121 14.306 13.4062 13.9119C13.8004 13.5178 14.0446 13.1209 14.225 12.6546C14.3999 12.2022 14.522 11.6859 14.5553 10.931C14.5886 10.1733 14.5969 9.93183 14.5969 8.00285C14.5969 6.07387 14.5886 5.8324 14.5553 5.07469C14.522 4.31975 14.3999 3.80073 14.225 3.3511C14.0501 2.87926 13.8087 2.48237 13.4118 2.08824C13.0177 1.69412 12.6208 1.44988 12.1545 1.26947C11.7021 1.09461 11.1858 0.97249 10.4309 0.939184C9.6704 0.903102 9.42893 0.894775 7.49995 0.894775Z" fill="white"/>
    <path d="M7.50001 4.35034C5.48499 4.35034 3.85022 5.98512 3.85022 8.00013C3.85022 10.0152 5.48499 11.6499 7.50001 11.6499C9.51503 11.6499 11.1498 10.0152 11.1498 8.00013C11.1498 5.98512 9.51503 4.35034 7.50001 4.35034ZM7.50001 10.3676C6.19275 10.3676 5.1325 9.3074 5.1325 8.00013C5.1325 6.69287 6.19275 5.63263 7.50001 5.63263C8.80728 5.63263 9.86752 6.69287 9.86752 8.00013C9.86752 9.3074 8.80728 10.3676 7.50001 10.3676Z" fill="white"/>
    <path d="M12.1462 4.20609C12.1462 4.67792 11.7632 5.05817 11.2941 5.05817C10.8223 5.05817 10.442 4.67515 10.442 4.20609C10.442 3.73425 10.825 3.354 11.2941 3.354C11.7632 3.354 12.1462 3.73702 12.1462 4.20609Z" fill="white"/>
  </g>
  <defs>
    <clipPath id="clip0_65_8717">
      <rect width="14.2106" height="14.2106" fill="white" transform="translate(0.394653 0.894775)"/>
    </clipPath>
  </defs>
</svg>