<svg xmlns="http://www.w3.org/2000/svg" width="30" height="30" viewBox="0 0 29 28" fill="none">
  <g filter="url(#filter0_d_62_947)">
    <circle cx="13.7995" cy="13.2896" r="10.5838" transform="rotate(180 13.7995 13.2896)" fill="#3C4242"/>
  </g>
  <path fill-rule="evenodd" clip-rule="evenodd" d="M9.79743 11.2928C10.0557 11.0959 10.4246 11.1457 10.6215 11.4039L13.5554 15.252C13.6285 15.3004 13.7351 15.3004 13.8082 15.252L16.7421 11.4039C16.939 11.1457 17.3079 11.0959 17.5662 11.2928C17.8244 11.4897 17.8742 11.8587 17.6773 12.1169L14.7332 15.9783C14.6989 16.0233 14.6469 16.0857 14.5748 16.1454C14.0618 16.5705 13.3019 16.5705 12.7888 16.1454C12.7168 16.0857 12.6648 16.0233 12.6304 15.9783L9.68635 12.1169C9.48946 11.8587 9.53919 11.4897 9.79743 11.2928Z" fill="white"/>
  <defs>
    <filter id="filter0_d_62_947" x="0.947861" y="0.437852" width="27.2154" height="27.2155" filterUnits="userSpaceOnUse" color-interpolation-filters="sRGB">
      <feFlood flood-opacity="0" result="BackgroundImageFix"/>
      <feColorMatrix in="SourceAlpha" type="matrix" values="0 0 0 0 0 0 0 0 0 0 0 0 0 0 0 0 0 0 127 0" result="hardAlpha"/>
      <feOffset dx="0.755986" dy="0.755986"/>
      <feGaussianBlur stdDeviation="1.51197"/>
      <feComposite in2="hardAlpha" operator="out"/>
      <feColorMatrix type="matrix" values="0 0 0 0 0 0 0 0 0 0 0 0 0 0 0 0 0 0 0.04 0"/>
      <feBlend mode="normal" in2="BackgroundImageFix" result="effect1_dropShadow_62_947"/>
      <feBlend mode="normal" in="SourceGraphic" in2="effect1_dropShadow_62_947" result="shape"/>
    </filter>
  </defs>
</svg>