<svg xmlns="http://www.w3.org/2000/svg" width="30" height="30" viewBox="0 0 29 28" fill="none">
  <g filter="url(#filter0_d_62_944)">
    <circle cx="13.7991" cy="12.9542" r="10.5838" fill="#3C4242"/>
  </g>
  <path fill-rule="evenodd" clip-rule="evenodd" d="M17.8012 16.0088C17.543 16.2057 17.174 16.156 16.9771 15.8977L14.0432 12.0496C13.9701 12.0013 13.8635 12.0013 13.7905 12.0496L10.8565 15.8977C10.6596 16.156 10.2907 16.2057 10.0324 16.0088C9.77421 15.8119 9.72448 15.443 9.92137 15.1847L12.8654 11.3234C12.8998 11.2783 12.9518 11.2159 13.0238 11.1563C13.5369 10.7311 14.2968 10.7311 14.8099 11.1563C14.8819 11.2159 14.9339 11.2783 14.9682 11.3234L17.9123 15.1847C18.1092 15.443 18.0594 15.8119 17.8012 16.0088Z" fill="white"/>
  <defs>
    <filter id="filter0_d_62_944" x="0.947373" y="0.102402" width="27.2154" height="27.2155" filterUnits="userSpaceOnUse" color-interpolation-filters="sRGB">
      <feFlood flood-opacity="0" result="BackgroundImageFix"/>
      <feColorMatrix in="SourceAlpha" type="matrix" values="0 0 0 0 0 0 0 0 0 0 0 0 0 0 0 0 0 0 127 0" result="hardAlpha"/>
      <feOffset dx="0.755986" dy="0.755986"/>
      <feGaussianBlur stdDeviation="1.51197"/>
      <feComposite in2="hardAlpha" operator="out"/>
      <feColorMatrix type="matrix" values="0 0 0 0 0 0 0 0 0 0 0 0 0 0 0 0 0 0 0.04 0"/>
      <feBlend mode="normal" in2="BackgroundImageFix" result="effect1_dropShadow_62_944"/>
      <feBlend mode="normal" in="SourceGraphic" in2="effect1_dropShadow_62_944" result="shape"/>
    </filter>
  </defs>
</svg>