<svg xmlns="http://www.w3.org/2000/svg" width="61" height="61" viewBox="0 0 22 22" fill="none">
  <path d="M15.5833 8.39478L15.5138 7.45773C15.4501 6.59933 14.7083 5.93425 13.8146 5.93425H11.9937M5.5 17.4167H4.45365C3.465 17.4167 2.68398 16.609 2.75442 15.6595L3.36283 7.45773C3.42651 6.59933 4.16831 5.93425 5.06207 5.93425H6.88298M6.88298 5.93425V4.2939C6.88298 2.93499 8.02705 1.83337 9.43833 1.83337C10.8496 1.83337 11.9937 2.93499 11.9937 4.2939V5.93425M6.88298 5.93425H11.9937M15.5833 13.75C15.5833 14.7626 14.7625 15.5834 13.75 15.5834C12.7375 15.5834 11.9167 14.7626 11.9167 13.75M10.0833 19.25H17.4167C18.4292 19.25 19.25 18.4292 19.25 17.4167V12.8334C19.25 11.8209 18.4292 11 17.4167 11H10.0833C9.07081 11 8.25 11.8209 8.25 12.8334V17.4167C8.25 18.4292 9.07081 19.25 10.0833 19.25Z" stroke="#1577EB" strokeWidth="1.5" strokeLinecap="round" />
</svg>