<svg xmlns="http://www.w3.org/2000/svg" width="24" height="24" viewBox="0 0 24 24" fill="none">
  <path d="M8.7 7.7L11 5.4V15C11 15.6 11.4 16 12 16C12.6 16 13 15.6 13 15V5.4L15.3 7.7C15.7 8.1 16.3 8.1 16.7 7.7C17.1 7.3 17.1 6.7 16.7 6.3L12.7 2.3C12.6 2.2 12.5 2.1 12.4 2.1C12.3 2 12.1 2 12 2C11.9 2 11.7 2 11.6 2.1C11.5 2.1 11.4 2.2 11.3 2.3L7.3 6.3C6.9 6.7 6.9 7.3 7.3 7.7C7.7 8.1 8.3 8.1 8.7 7.7ZM21 10C20.4 10 20 10.4 20 11V17.8C20 18.7 20 19.2 19.9 19.5C19.8 19.7 19.6 19.8 19.5 19.9C19.2 20 18.7 20 17.8 20H6.2C5.3 20 4.8 20 4.5 19.9C4.3 19.8 4.2 19.6 4.1 19.5C4 19.2 4 18.7 4 17.8V11C4 10.4 3.6 10 3 10C2.4 10 2 10.4 2 11V17.8C2 19 2 19.7 2.3 20.4C2.6 21 3 21.4 3.6 21.7C4.3 22 5 22 6.2 22H17.8C19 22 19.7 22 20.4 21.7C21 21.4 21.4 21 21.7 20.4C22 19.7 22 19 22 17.8V11C22 10.4 21.6 10 21 10Z" fill="#1575EB"/>
</svg>