<svg xmlns="http://www.w3.org/2000/svg" width="16" height="16" viewBox="0 0 16 16" fill="none">
  <path d="M15.17 9.16883C14.9619 7.77683 13.778 6.78483 12.434 6.72083C12.77 5.4728 13.5859 4.97683 14.578 4.68883C14.674 4.65685 14.658 4.56081 14.658 4.56081L14.498 3.56884C14.498 3.56884 14.482 3.48884 14.354 3.50482C10.93 3.88884 8.60995 6.49682 9.04195 9.66482C9.4419 11.8568 11.1538 12.7048 12.738 12.4808C14.322 12.2248 15.41 10.7528 15.17 9.16882L15.17 9.16883ZM4.24197 6.72083C4.56197 5.4728 5.40999 4.97683 6.38597 4.68883C6.48196 4.65685 6.46597 4.56081 6.46597 4.56081L6.32195 3.56884C6.32195 3.56884 6.30596 3.48884 6.17794 3.50482C2.73794 3.88884 0.449939 6.49682 0.849938 9.66482C1.26598 11.8568 2.99394 12.7048 4.56194 12.4808C6.14594 12.2248 7.23394 10.7528 6.97794 9.16882C6.76997 7.76082 5.60194 6.76882 4.24194 6.72082L4.24197 6.72083Z" fill="#1577EB"/>
</svg>