<svg xmlns="http://www.w3.org/2000/svg" width="81" height="81" viewBox="0 0 81 81" fill="none">
  <circle cx="40.7822" cy="40.0205" r="40" fill="#F4F4F4"/>
  <path d="M37.5994 34.2931C37.3189 34.4559 36.9588 34.36 36.7961 34.0783C36.6738 33.8668 36.6982 33.6112 36.8376 33.4281H28.4265C28.1922 34.5781 27.2838 35.4865 26.1338 35.7207V44.0705C27.2838 44.3048 28.1922 45.2131 28.4265 46.3632H36.7779C34.6264 45.0094 33.1893 42.62 33.1893 39.8956C33.1893 38.0117 33.8806 36.2021 35.1357 34.7997C35.3525 34.5583 35.7237 34.5367 35.966 34.7538C36.208 34.9702 36.2284 35.342 36.0119 35.584C34.95 36.7703 34.3652 38.3017 34.3652 39.8956C34.3652 43.4618 37.2666 46.3632 40.8328 46.3632C44.399 46.3632 47.3004 43.4618 47.3004 39.8956C47.3004 36.3294 44.399 33.428 40.8328 33.428C39.6956 33.428 38.5777 33.7271 37.5993 34.293L37.5994 34.2931ZM30.2495 41.6595C29.2769 41.6595 28.4856 40.8683 28.4856 39.8956C28.4856 38.923 29.2769 38.1318 30.2495 38.1318C31.2222 38.1318 32.0134 38.923 32.0134 39.8956C32.0134 40.8683 31.2222 41.6595 30.2495 41.6595ZM41.4208 35.1919V35.8634C42.4323 36.1264 43.1847 37.0392 43.1847 38.1318C43.1847 38.4565 42.9215 38.7197 42.5968 38.7197C42.272 38.7197 42.0088 38.4565 42.0088 38.1318C42.0088 37.4832 41.4814 36.9558 40.8329 36.9558C40.1843 36.9558 39.6569 37.4832 39.6569 38.1318C39.6569 38.7803 40.1843 39.3077 40.8329 39.3077C42.1297 39.3077 43.1847 40.3627 43.1847 41.6595C43.1847 42.7521 42.4323 43.6649 41.4208 43.9279V44.5993C41.4208 44.9241 41.1576 45.1873 40.8329 45.1873C40.5082 45.1873 40.2449 44.9241 40.2449 44.5993V43.9279C39.2335 43.6649 38.481 42.7521 38.481 41.6595C38.481 41.3348 38.7443 41.0716 39.069 41.0716C39.3937 41.0716 39.6569 41.3348 39.6569 41.6595C39.6569 42.3081 40.1843 42.8355 40.8329 42.8355C41.4814 42.8355 42.0088 42.3081 42.0088 41.6595C42.0088 41.011 41.4814 40.4836 40.8329 40.4836C39.536 40.4836 38.481 39.4286 38.481 38.1318C38.481 37.0392 39.2335 36.1264 40.2449 35.8634V35.1919C40.2449 34.8672 40.5082 34.604 40.8329 34.604C41.1576 34.604 41.4208 34.8672 41.4208 35.1919Z" fill="black" fill-opacity="0.87"/>
  <path d="M30.2501 40.4835C30.5748 40.4835 30.838 40.2203 30.838 39.8956C30.838 39.5709 30.5748 39.3076 30.2501 39.3076C29.9253 39.3076 29.6621 39.5709 29.6621 39.8956C29.6621 40.2203 29.9253 40.4835 30.2501 40.4835Z" fill="black" fill-opacity="0.87"/>
  <path d="M57.2961 31.0757H24.3702C24.0461 31.0757 23.7822 31.3395 23.7822 31.6636V48.1266C23.7822 48.4507 24.0461 48.7146 24.3702 48.7146H57.2961C57.6202 48.7146 57.8841 48.4507 57.8841 48.1266V31.6636C57.8841 31.3395 57.6202 31.0757 57.2961 31.0757ZM56.7082 44.5988C56.7082 44.9235 56.4449 45.1868 56.1202 45.1868C55.1476 45.1868 54.3563 45.978 54.3563 46.9507C54.3563 47.2754 54.093 47.5386 53.7683 47.5386H50.2406C49.9159 47.5386 49.6526 47.2754 49.6526 46.9507C49.6526 46.626 49.9159 46.3627 50.2406 46.3627H53.2395C53.4738 45.2127 54.3822 44.3043 55.5322 44.07V35.7203C54.3822 35.486 53.4738 34.5777 53.2395 33.4276H44.8881C47.0396 34.7814 48.4767 37.1708 48.4767 39.8952C48.4767 42.6196 47.0396 45.009 44.8881 46.3628H47.3008C47.6255 46.3628 47.8888 46.6261 47.8888 46.9508C47.8888 47.2755 47.6255 47.5387 47.3008 47.5387H27.898C27.5733 47.5387 27.31 47.2755 27.31 46.9508C27.31 45.9781 26.5188 45.1869 25.5461 45.1869C25.2214 45.1869 24.9582 44.9236 24.9582 44.5989V35.1914C24.9582 34.8667 25.2214 34.6035 25.5461 34.6035C26.5188 34.6035 27.31 33.8122 27.31 32.8396C27.31 32.5149 27.5733 32.2516 27.898 32.2516H53.7683C54.093 32.2516 54.3563 32.5149 54.3563 32.8396C54.3563 33.8122 55.1476 34.6035 56.1202 34.6035C56.4449 34.6035 56.7082 34.8667 56.7082 35.1914V44.5988ZM51.4165 39.3072C51.0918 39.3072 50.8285 39.0439 50.8285 38.7192C50.8285 38.3945 51.0918 38.1312 51.4165 38.1312C52.3891 38.1312 53.1804 38.9225 53.1804 39.8951C53.1804 40.8678 52.3891 41.659 51.4165 41.659C50.4438 41.659 49.6526 40.8678 49.6526 39.8951C49.6526 39.5704 49.9159 39.3072 50.2406 39.3072C50.5653 39.3072 50.8285 39.5704 50.8285 39.8951C50.8285 40.2198 51.0924 40.4831 51.4165 40.4831C51.7406 40.4831 52.0044 40.2192 52.0044 39.8951C52.0044 39.571 51.7406 39.3072 51.4165 39.3072Z" fill="black" fill-opacity="0.87"/>
  <path d="M34.3655 28.7242H36.7173C37.042 28.7242 37.3053 28.461 37.3053 28.1362C37.3053 27.8115 37.042 27.5483 36.7173 27.5483H35.7415C37.112 26.0531 39.0229 25.1964 41.0701 25.1964H41.3446C43.7728 25.1964 46.0262 26.4025 47.3729 28.4227L47.3993 28.4623C47.5089 28.6268 47.6821 28.711 47.8618 28.711C47.9775 28.711 48.0958 28.6762 48.2014 28.6056C48.4716 28.4256 48.5312 28.0406 48.3513 27.7705C46.786 25.4224 44.1666 24.0205 41.3445 24.0205H41.0701C38.7292 24.0205 36.5405 24.9829 34.9533 26.6687V25.7844C34.9533 25.4597 34.69 25.1964 34.3653 25.1964C34.0406 25.1964 33.7773 25.4597 33.7773 25.7844V28.1362C33.7773 28.461 34.0406 28.7242 34.3653 28.7242H34.3655Z" fill="black" fill-opacity="0.87"/>
  <path d="M47.8886 51.0664H45.5367C45.212 51.0664 44.9488 51.3297 44.9488 51.6544C44.9488 51.9791 45.212 52.2423 45.5367 52.2423H46.5125C45.1421 53.7375 43.2311 54.5942 41.1839 54.5942H40.9095C38.4813 54.5942 36.2279 53.3881 34.8812 51.3679L34.8548 51.3283C34.6748 51.0581 34.3228 51.005 34.0526 51.185C33.7825 51.365 33.7228 51.7501 33.9028 52.0202C35.468 54.3683 38.0875 55.7701 40.9095 55.7701H41.184C43.5249 55.7701 45.7136 54.8078 47.3008 53.1219V54.0062C47.3008 54.3309 47.564 54.5942 47.8887 54.5942C48.2134 54.5942 48.4767 54.3309 48.4767 54.0062V51.6544C48.4767 51.3297 48.2134 51.0664 47.8887 51.0664H47.8886Z" fill="black" fill-opacity="0.87"/>
</svg>