<svg xmlns="http://www.w3.org/2000/svg" width="81" height="81" viewBox="0 0 81 81" fill="none">
  <circle cx="40.4805" cy="40.0205" r="40" fill="#F4F4F4"/>
  <path fill-rule="evenodd" clip-rule="evenodd" d="M44.9542 43.2526H41.3752V43.9533H44.9542V43.2526ZM46.6698 42.3947V44.8108C46.6698 45.2845 46.2854 45.6684 45.8118 45.6684H40.5172C40.0433 45.6684 39.6592 45.2845 39.6592 44.8108V42.3947C39.6592 41.9214 40.0433 41.5375 40.5172 41.5375H45.8122C46.2857 41.5375 46.6698 41.9214 46.6698 42.3947ZM47.7689 34.3221V46.7186C47.7689 47.1337 47.4313 47.4714 47.016 47.4714H32.945C32.5296 47.4714 32.192 47.1337 32.192 46.7186V34.3221C32.192 33.907 32.5296 33.5696 32.945 33.5696H36.9116V36.8103C36.9116 37.1225 37.0813 37.4102 37.355 37.561C37.6287 37.7118 37.962 37.7022 38.2268 37.5362L39.9805 36.4331L41.7341 37.5358C41.8736 37.6234 42.0319 37.6674 42.1913 37.6674C42.334 37.6674 42.4771 37.632 42.6056 37.5606C42.8793 37.4099 43.0493 37.1221 43.0493 36.8099V33.5692H47.016C47.4313 33.5696 47.7689 33.907 47.7689 34.3221ZM38.6272 35.258L39.5229 34.6946C39.8023 34.519 40.1579 34.519 40.4373 34.6946L41.3326 35.258V33.5696H38.6269L38.6272 35.258ZM49.4853 34.3221V46.7186C49.4853 48.0792 48.378 49.1862 47.016 49.1862H32.945C31.5832 49.1862 30.4757 48.0792 30.4757 46.7186V34.3221C30.4757 32.9615 31.5832 31.8542 32.945 31.8542H47.0163C48.378 31.8542 49.4853 32.9615 49.4853 34.3221ZM24.7085 44.5302C24.8292 44.9882 24.5552 45.4569 24.0969 45.5779C24.0241 45.5971 23.9499 45.6063 23.8782 45.6063C23.4977 45.6063 23.1505 45.3516 23.049 44.967C22.0901 41.3271 22.3504 37.3935 23.7827 33.8907C25.2613 30.2743 27.836 27.3284 31.2286 25.3703C33.9169 23.8195 36.9041 23.0248 39.9315 23.0205H39.9574C41.4331 23.0209 42.918 23.2089 44.3819 23.5896C48.0962 24.5546 51.3248 26.6642 53.6716 29.6197L53.766 27.8006C53.7909 27.3277 54.1942 26.9644 54.6674 26.9889C55.1402 27.0134 55.5041 27.4168 55.4796 27.89L55.252 32.2466C55.2382 32.5095 55.1043 32.7521 54.8889 32.9036C54.6745 33.0544 54.3997 33.0995 54.1487 33.0232L50.0948 31.8034C49.6411 31.6668 49.3844 31.1886 49.5211 30.7348C49.6578 30.2817 50.1363 30.0241 50.59 30.1614L52.3205 30.6819C47.5378 24.7001 38.8889 22.9304 32.087 26.8555C25.9361 30.4048 22.9013 37.6731 24.7085 44.5302ZM56.1782 47.15C54.6997 50.7661 52.1249 53.7126 48.7323 55.6707C46.0383 57.2254 43.0419 58.0205 40.0071 58.0205C38.53 58.0205 37.0447 57.8325 35.579 57.4514C31.8644 56.4867 28.6361 54.3768 26.2893 51.4214L26.1945 53.2404C26.1711 53.6984 25.7923 54.0532 25.3386 54.0532C25.3237 54.0532 25.3081 54.0529 25.2932 54.0521C24.8204 54.027 24.4569 53.6239 24.4813 53.151L24.7085 48.7938C24.722 48.5312 24.8562 48.2889 25.0717 48.137C25.2868 47.9852 25.5598 47.9415 25.8122 48.0175L29.8658 49.2376C30.3195 49.3738 30.5761 49.8521 30.4395 50.3055C30.3031 50.7593 29.8246 51.0158 29.3709 50.8796L27.6393 50.3584C30.6915 54.1774 35.3198 56.2792 40.0383 56.2792C42.711 56.2792 45.4128 55.6047 47.8736 54.1848C54.0245 50.6355 57.0589 43.3672 55.2517 36.5105C55.131 36.0524 55.405 35.5837 55.8633 35.4631C56.3216 35.3421 56.7905 35.6157 56.9116 36.0741C57.8708 39.7139 57.6109 43.6471 56.1782 47.15Z" fill="black" fill-opacity="0.87"/>
</svg>