<svg xmlns="http://www.w3.org/2000/svg" width="20" height="20" viewBox="0 0 12 12" fill="none">
  <path d="M10.6304 11.4996C10.8193 11.701 11.1357 11.7111 11.3371 11.5222C11.5385 11.3333 11.5486 11.0169 11.3597 10.8155L10.6304 11.4996ZM8.91982 5.2057C8.85586 7.20265 7.18516 8.76964 5.18821 8.70568L5.1562 9.70517C7.70515 9.78681 9.83766 7.78667 9.91931 5.23772L8.91982 5.2057ZM5.18821 8.70568C3.19126 8.64172 1.62427 6.97102 1.68823 4.97407L0.688746 4.94206C0.607102 7.49101 2.60725 9.62352 5.1562 9.70517L5.18821 8.70568ZM1.68823 4.97407C1.7522 2.97713 3.42289 1.41013 5.41984 1.4741L5.45186 0.474608C2.90291 0.392964 0.77039 2.39311 0.688746 4.94206L1.68823 4.97407ZM5.41984 1.4741C7.41679 1.53806 8.98378 3.20876 8.91982 5.2057L9.91931 5.23772C10.001 2.68877 8.00081 0.556253 5.45186 0.474608L5.41984 1.4741ZM7.78484 8.46577L10.6304 11.4996L11.3597 10.8155L8.51423 7.78166L7.78484 8.46577Z" fill="#fff" fill-opacity="1"/>
</svg>