<svg xmlns="http://www.w3.org/2000/svg" width="16" height="16" viewBox="0 0 16 16" fill="none">
  <path d="M3.72297 11.4284C3.72297 11.4284 3.49343 11.1989 3.03433 10.7398C2.57523 10.2807 2.34569 9.40647 2.34569 8.11709C2.34569 6.82772 2.80478 5.72393 3.72297 4.80574C4.64117 3.88755 5.74495 3.42845 7.03433 3.42845C8.32371 3.42845 9.42749 3.88755 10.3457 4.80574C11.2639 5.72393 11.723 6.82772 11.723 8.11709C11.723 9.23065 11.3713 10.2172 10.668 11.0768L14.4189 14.7984L13.7156 15.5017L9.99404 11.7508C9.13445 12.4541 8.14788 12.8057 7.03433 12.8057C5.74495 12.8057 4.64117 12.3466 3.72297 11.4284ZM4.38232 5.46508C4.38232 5.46508 4.19917 5.64823 3.83286 6.01453C3.46656 6.38083 3.28341 7.08168 3.28341 8.11709C3.28341 9.1525 3.64971 10.0365 4.38232 10.7691C5.11492 11.5017 5.99892 11.868 7.03433 11.868C8.06974 11.868 8.95374 11.5017 9.68634 10.7691C10.4189 10.0365 10.7852 9.1525 10.7852 8.11709C10.7852 7.08168 10.4189 6.19768 9.68634 5.46508C8.95374 4.73248 8.06974 4.36618 7.03433 4.36618C5.99892 4.36618 5.11492 4.73248 4.38232 5.46508Z" fill="#0F0F0F" fill-opacity="0.6"/>
</svg>