<svg xmlns="http://www.w3.org/2000/svg" width="81" height="81" viewBox="0 0 81 81" fill="none">
  <circle cx="40.3389" cy="40.0205" r="40" fill="#F4F4F4"/>
  <path d="M57.3389 45.7805C57.3389 42.5686 55.4621 39.8106 52.7696 38.4999V35.9194C52.7696 29.359 47.4169 24.0205 40.8389 24.0205C34.2609 24.0205 28.9081 29.359 28.9081 35.9194V38.4999C26.2156 39.8106 24.3389 42.5686 24.3389 45.7805C24.3389 50.2503 27.9452 53.8872 32.3773 53.8872C34.0104 53.8872 35.3389 52.5474 35.3389 50.9005V40.6605C35.3389 39.0136 34.0104 37.6738 32.3773 37.6738C32.0592 37.6738 31.7563 37.7319 31.4466 37.7694V35.9211C31.4466 30.7704 35.6604 26.5822 40.8389 26.5822C46.0173 26.5822 50.2312 30.7721 50.2312 35.9211V37.7694C49.9215 37.7336 49.6186 37.6738 49.3004 37.6738C47.6673 37.6738 46.3389 39.0136 46.3389 40.6605V50.9005C46.3389 51.5729 46.569 52.189 46.943 52.6891C46.4032 52.9161 45.8176 53.0338 45.2152 53.0338H43.9646C43.6244 52.3904 42.9729 51.9365 42.1995 51.9365H39.4799C38.3613 51.9365 37.4559 52.8512 37.4559 53.9776C37.4559 55.104 38.363 56.0205 39.4799 56.0205H42.1995C42.6496 56.0205 43.0423 55.843 43.379 55.5938H45.2152C46.9278 55.5938 48.5287 54.9555 49.8081 53.836C53.9999 53.5663 57.3389 50.0762 57.3389 45.7805ZM32.3773 40.2338C32.6109 40.2338 32.8004 40.425 32.8004 40.6605V50.9005C32.8004 51.136 32.6109 51.3272 32.3773 51.3272C29.3447 51.3272 26.8773 48.8389 26.8773 45.7805C26.8773 42.7222 29.3447 40.2338 32.3773 40.2338ZM49.3004 51.3272C49.0669 51.3272 48.8773 51.136 48.8773 50.9005V40.6605C48.8773 40.425 49.0669 40.2338 49.3004 40.2338C52.333 40.2338 54.8004 42.7222 54.8004 45.7805C54.8004 48.8389 52.333 51.3272 49.3004 51.3272Z" fill="black" fill-opacity="0.87"/>
</svg>