<svg xmlns="http://www.w3.org/2000/svg" width="15" height="16" viewBox="0 0 15 16" fill="none">
  <path d="M11.5821 1.20988L4.10435 8.68765C3.81875 8.97171 3.59233 9.3096 3.4382 9.68176C3.28407 10.0539 3.2053 10.453 3.20643 10.8558V11.6795C3.20643 11.8422 3.27105 11.9982 3.38607 12.1132C3.5011 12.2282 3.6571 12.2928 3.81977 12.2928H4.64347C5.04629 12.294 5.44533 12.2152 5.81749 12.0611C6.18965 11.9069 6.52754 11.6805 6.81161 11.3949L14.2894 3.91714C14.6478 3.55783 14.8491 3.07103 14.8491 2.56351C14.8491 2.05599 14.6478 1.56919 14.2894 1.20988C13.9248 0.861446 13.44 0.666992 12.9357 0.666992C12.4315 0.666992 11.9466 0.861446 11.5821 1.20988ZM13.4221 3.04989L5.94435 10.5276C5.59851 10.8714 5.13108 11.0649 4.64347 11.0662H4.4331V10.8558C4.43438 10.3682 4.62787 9.90074 4.97161 9.5549L12.4494 2.07714C12.5804 1.95199 12.7546 1.88216 12.9357 1.88216C13.1169 1.88216 13.2911 1.95199 13.4221 2.07714C13.5509 2.20625 13.6232 2.38116 13.6232 2.56351C13.6232 2.74586 13.5509 2.92077 13.4221 3.04989Z" fill="#777777"/>
  <path d="M14.2467 6.14677C14.084 6.14677 13.928 6.21139 13.813 6.32641C13.6979 6.44143 13.6333 6.59744 13.6333 6.7601V9.83965H11.18C10.692 9.83965 10.224 10.0335 9.87891 10.3786C9.53384 10.7236 9.33999 11.1917 9.33999 11.6796V14.133H3.20665C2.71865 14.133 2.25064 13.9391 1.90557 13.5941C1.56051 13.249 1.36665 12.781 1.36665 12.293V3.70632C1.36665 3.21832 1.56051 2.75031 1.90557 2.40524C2.25064 2.06017 2.71865 1.86632 3.20665 1.86632H8.75241C8.91508 1.86632 9.07108 1.8017 9.1861 1.68667C9.30113 1.57165 9.36575 1.41565 9.36575 1.25298C9.36575 1.09032 9.30113 0.934312 9.1861 0.81929C9.07108 0.704267 8.91508 0.639648 8.75241 0.639648H3.20665C2.39362 0.640622 1.61417 0.964029 1.03927 1.53893C0.464365 2.11383 0.140958 2.89328 0.139984 3.70632L0.139984 12.293C0.140958 13.106 0.464365 13.8855 1.03927 14.4604C1.61417 15.0353 2.39362 15.3587 3.20665 15.3596H10.1637C10.5666 15.3608 10.9657 15.282 11.338 15.1279C11.7103 14.9738 12.0483 14.7474 12.3324 14.4617L13.9615 12.8315C14.2471 12.5474 14.4736 12.2096 14.6278 11.8374C14.7821 11.4652 14.861 11.0662 14.86 10.6634V6.7601C14.86 6.59744 14.7954 6.44143 14.6803 6.32641C14.5653 6.21139 14.4093 6.14677 14.2467 6.14677ZM11.4652 13.5945C11.2186 13.8404 10.9069 14.0107 10.5667 14.0851V11.6796C10.5667 11.517 10.6313 11.361 10.7463 11.246C10.8613 11.1309 11.0173 11.0663 11.18 11.0663H13.5873C13.5114 11.4058 13.3414 11.717 13.0967 11.9642L11.4652 13.5945Z" fill="#777777"/>
</svg>