<svg xmlns="http://www.w3.org/2000/svg" width="15" height="18" viewBox="0 0 15 18" fill="none">
  <path d="M13.4291 0.106445H1.57093C1.41369 0.106445 1.26288 0.168912 1.15169 0.280104C1.04049 0.391295 0.978027 0.542103 0.978027 0.699352V17.3007C0.978027 17.458 1.04049 17.6088 1.15169 17.72C1.26288 17.8312 1.41369 17.8936 1.57093 17.8936H1.64979C1.80703 17.8936 1.95781 17.8311 2.06898 17.7199L7.53913 12.2492L13.0099 17.7199C13.0928 17.8028 13.1984 17.8593 13.3134 17.8821C13.4284 17.905 13.5476 17.8933 13.6559 17.8484C13.7643 17.8035 13.8569 17.7276 13.922 17.6301C13.9872 17.5326 14.0219 17.418 14.022 17.3007V0.699352C14.022 0.542103 13.9595 0.391295 13.8483 0.280104C13.7371 0.168912 13.5863 0.106445 13.4291 0.106445Z" fill="white"/>
</svg>