<svg xmlns="http://www.w3.org/2000/svg" width="10" height="12" viewBox="0 0 10 12" fill="none">
  <path fill-rule="evenodd" clip-rule="evenodd" d="M6.18868 5.99982L9.75362 1.7219C10.0817 1.32822 10.0824 0.688747 9.7542 0.294957C9.42661 -0.0980048 8.8936 -0.0985811 8.56508 0.295661L4.99985 4.57358L1.43492 0.295661C1.10685 -0.0980217 0.573956 -0.0988501 0.245798 0.294957C-0.0816707 0.688063 -0.082151 1.32768 0.246384 1.7219L3.81131 5.99982L0.246384 10.2781C-0.0816848 10.6718 -0.0823751 11.3113 0.245798 11.705C0.573386 12.098 1.1064 12.0986 1.43492 11.7043L4.99985 7.42642L8.56508 11.7043C8.89315 12.098 9.42604 12.0989 9.7542 11.705C10.0817 11.3119 10.0822 10.6723 9.75362 10.2781L6.18868 5.99982Z" fill="white" fill-opacity="0.87"/>
</svg>